<svg width="96" height="96" viewBox="0 0 96 96" fill="none" xmlns="http://www.w3.org/2000/svg">
<circle cx="48" cy="48" r="48" fill="#4743FF"/>
<path d="M63.9392 27.8006C63.2514 27.3951 62.4949 27.1372 61.713 27.0417C60.9312 26.9462 60.1392 27.015 59.3824 27.2441C58.6256 27.4731 57.9188 27.858 57.3025 28.3767C56.6862 28.8955 56.1725 29.5378 55.7906 30.2671L44.6673 51.4779L38.3012 44.7324C37.7485 44.1261 37.0874 43.6424 36.3564 43.3097C35.6254 42.977 34.8392 42.8018 34.0436 42.7945C33.2481 42.7872 32.4591 42.9478 31.7228 43.267C30.9864 43.5863 30.3175 44.0577 29.7549 44.6537C29.1923 45.2498 28.7474 45.9587 28.4462 46.7389C28.1449 47.5191 27.9933 48.3551 28.0002 49.1981C28.0071 50.041 28.1724 50.8741 28.4864 51.6487C28.8004 52.4232 29.2569 53.1238 29.8292 53.7094L41.8123 66.4067C42.9447 67.6097 44.4725 68.27 46.0483 68.27L46.8782 68.2065C47.7965 68.0704 48.6725 67.7103 49.4372 67.1545C50.2019 66.5987 50.8344 65.8624 51.285 65.0036L66.2639 36.4348C66.6463 35.7061 66.8895 34.9048 66.9797 34.0765C67.0698 33.2482 67.0051 32.4093 66.7892 31.6075C66.5733 30.8058 66.2105 30.0569 65.7215 29.4037C65.2325 28.7505 64.6269 28.2058 63.9392 27.8006Z" fill="#F3F0ED"/>
</svg>
