<svg width="88" height="88" viewBox="0 0 88 88" fill="none" xmlns="http://www.w3.org/2000/svg">
<path fill-rule="evenodd" clip-rule="evenodd" d="M54.2927 3.75713L54.3256 3.76485H54.3265L54.5017 14.2582L56.1119 14.6607L62.3516 3.78512L60.9388 3.43181L55.7636 12.7097L55.7307 12.702L55.5671 2.08997L54.072 1.71639L48.9297 11.0021L48.8968 10.9943L48.7004 0.373589L47.2053 0L47.5682 12.5263L49.162 12.9241L54.2927 3.75713ZM62.4744 14.3199L67.1435 17.7392L67.1426 17.7402L66.2262 21.2395L67.4551 22.1392L70.6524 9.51638L69.3286 8.54621L58.2272 15.3799L59.401 16.24L62.4744 14.3199ZM67.4735 16.492L63.5689 13.6326L63.5699 13.6317L69.0964 10.1767L69.137 10.2066L67.4735 16.492ZM78.0498 18.6273L75.3906 15.0005L76.3747 14.2823L82.5621 22.7223L81.578 23.4405L78.9091 19.8002L70.1341 26.2024L69.2748 25.0295L78.0498 18.6273ZM78.6803 36.6108C77.3091 36.7817 75.9543 36.3048 75.3127 34.3818L75.3137 34.3808C74.5279 32.0244 75.9853 30.0271 78.8458 29.0782C81.7053 28.1283 84.0403 28.8668 84.8261 31.2232C85.4677 33.1471 84.6693 34.3374 83.4694 35.0209L83.9184 36.3675C85.8838 35.3056 86.8331 33.3344 85.9989 30.8342C85.0148 27.885 81.9733 26.4727 78.3745 27.6678C74.7592 28.8677 73.1557 31.8217 74.1399 34.7708C74.974 37.2711 76.9171 38.2818 79.1293 37.9575L78.6803 36.6108ZM88.0009 40.3553L87.9661 41.8062L82.6331 41.6778L82.4619 48.7374L87.7948 48.8658L87.76 50.3177L75.6725 50.0262L75.7074 48.5743L81.2435 48.7075L81.4148 41.6489L75.8787 41.5157L75.9135 40.0638L88.0009 40.3553ZM84.1605 59.5918L82.0422 63.5574L72.4466 58.4575L71.7615 59.7395L81.3571 64.8394L79.2311 68.8205L80.3072 69.392L85.2366 60.1633L84.1605 59.5918ZM77.126 73.3798L76.0441 74.3529L72.4723 70.3998L67.2139 75.1281L70.7856 79.0812L69.7038 80.0542L61.608 71.0948L62.6899 70.1218L66.3981 74.2255L71.6556 69.4972L67.9474 65.3935L69.0293 64.4204L77.125 73.3798H77.126ZM64.612 83.0593L59.9303 71.9385L59.9284 71.9376L52.3871 75.0971L52.8594 76.2189L59.0739 73.6153L60.7006 77.4777L55.1886 79.7868L55.6676 80.924L61.1796 78.6149L62.8121 82.4936L56.614 85.0904L57.0862 86.2121L64.612 83.0593ZM46.9544 88L39.2168 87.8658L39.238 86.6495L45.5203 86.7586L45.5977 82.3499L39.8912 82.2504L39.9125 81.0341L45.619 81.1335L45.71 75.9139L47.1663 75.939L46.9554 87.9991L46.9544 88ZM36.4983 80.3786C37.6111 77.2412 36.5137 74.9176 33.6078 73.8924H33.6068C30.6689 72.8556 28.3822 73.9841 27.281 77.0896L24.8908 83.8268L26.2639 84.3114L28.6822 77.4951C29.5415 75.074 31.1827 74.3452 33.1946 75.0557C35.1909 75.7604 36.0231 77.3619 35.1648 79.783L32.7465 86.5993L34.1197 87.0839L36.4983 80.3786ZM20.0164 80.9279L18.8697 80.0321L25.5758 71.4955L20.4577 67.4942L21.2096 66.5365L27.4744 71.4337L20.0164 80.9279ZM9.50066 71.1179L10.3358 72.3082H10.3368L20.2411 65.3876L15.6745 58.8841L14.6759 59.5821L18.4063 64.8953L9.50066 71.1179ZM2.01861 57.6311L2.01851 57.6306L13.06 50.7154L12.7677 49.0859L0 46.3897L0.263212 47.8531L11.4381 50.114L11.4439 50.1468L1.74959 56.1348L2.01851 57.6306L2.01764 57.6311H2.01861ZM0.440845 40.9307L0.354721 42.3807L12.4247 43.094L12.5109 41.6441L0.440845 40.9307ZM9.75539 27.7267C13.2275 28.8204 14.8009 31.814 13.7452 35.1492L12.4553 39.2249L0.925199 35.5914L2.21513 31.5157C3.27088 28.1814 6.29879 26.6378 9.75442 27.7267H9.75539ZM2.52189 34.5884L11.7266 37.4883L12.583 34.7824C13.4297 32.1084 12.0953 30.0406 9.30154 29.1602C6.52427 28.2847 4.22503 29.2085 3.3783 31.8825L2.52189 34.5884ZM16.2927 28.6104L16.2933 28.6109H16.2924L16.2927 28.6104ZM21.1502 22.0456L16.2927 28.6104L6.56416 21.448L11.4113 14.8962L12.3926 15.6183L8.39987 21.0146L11.7926 23.5129L15.3431 18.7142L16.3379 19.4469L12.7874 24.2456L16.1666 26.7333L20.1689 21.3235L21.1502 22.0456ZM26.1843 18.4295C23.4293 20.3361 20.1749 19.4209 18.1002 16.4371C16.0342 13.4667 16.3061 10.0918 19.0611 8.18528C21.8161 6.27872 25.0802 7.20738 27.1452 10.1778C29.2209 13.1626 28.9393 16.523 26.1843 18.4295ZM19.7656 9.19793C17.5806 10.7097 17.6647 13.2012 19.3243 15.5895C20.9946 17.9913 23.2948 18.9277 25.4798 17.4159C27.6504 15.9138 27.5768 13.4358 25.9066 11.035C24.246 8.64768 21.9361 7.69682 19.7656 9.19889V9.19793ZM38.8193 7.93618C38.5677 6.72853 37.3871 5.95529 36.1765 6.20531C34.9495 6.4592 34.1579 7.64078 34.4085 8.84843C34.6592 10.0561 35.8572 10.8264 37.0842 10.5725C38.2948 10.3215 39.0699 9.14383 38.8193 7.93618Z" fill="#F3F0ED"/>
</svg>
