<svg width="235" height="108" viewBox="0 0 235 108" fill="none" xmlns="http://www.w3.org/2000/svg">
<path d="M42.1273 5.012C42.1273 2.922 40.3673 1.25 36.6933 1.25H31.3693L31.4353 1.998L32.5793 2.13C33.0413 2.174 33.1513 2.24 33.1513 2.416V13.812C33.1513 13.988 32.9973 14.076 32.5793 14.12L31.4353 14.252L31.3693 15H37.1553L37.0893 14.252L35.5273 14.12C35.0873 14.076 34.9553 14.01 34.9553 13.834V9.324C35.5493 9.39 36.1873 9.434 36.8253 9.434C39.7513 9.434 42.1273 7.85 42.1273 5.012ZM40.1913 5.364C40.1913 7.41 38.8273 8.664 36.7373 8.664C36.0993 8.664 35.5053 8.576 34.9553 8.444V2.086C34.9553 2.086 35.7473 2.064 36.6273 2.064C38.8273 2.042 40.1913 3.296 40.1913 5.364ZM51.4562 12.844L51.0162 12.58C50.2242 13.526 49.2122 13.922 48.2002 13.922C46.1982 13.922 44.7462 12.14 44.7462 9.654C44.7462 9.566 44.7462 9.214 44.7682 9.126L51.3902 9.214C51.4562 8.906 51.5002 8.422 51.5002 8.048C51.5002 6.156 50.1802 4.858 48.1122 4.858C45.3842 4.858 43.0742 7.168 43.0742 10.38C43.0742 13.24 44.9442 15.308 47.4962 15.308C49.2122 15.308 50.6642 14.406 51.4562 12.844ZM49.7402 8.444C49.8282 8.444 44.8562 8.466 44.8562 8.466C45.2082 6.684 46.5062 5.628 47.7162 5.628C49.0362 5.628 49.8502 6.728 49.7402 8.444ZM60.4973 5.958C60.4973 5.342 60.0573 4.836 59.2653 4.836C58.3193 4.836 57.5273 5.584 56.2513 7.718H56.1633V4.858L53.0393 5.584L52.9953 6.178L53.8973 6.31C54.4693 6.464 54.5793 6.596 54.5793 7.608V13.834C54.5793 14.054 54.4253 14.142 54.0293 14.164L53.1493 14.252L53.0833 15H57.9893L57.9233 14.252L56.7573 14.164C56.2513 14.142 56.1633 14.032 56.1633 13.856V8.906C56.7133 7.806 57.7253 6.794 58.4073 6.376C58.6053 6.75 59.0013 7.08 59.4633 7.08C60.1233 7.08 60.4973 6.574 60.4973 5.958ZM69.6964 12.844L69.2564 12.58C68.4644 13.526 67.4524 13.922 66.4404 13.922C64.4384 13.922 62.9864 12.074 62.9864 9.61C62.9864 7.234 64.3284 5.65 66.0664 5.65C66.6384 5.65 67.1444 5.826 67.4524 6.046V6.09C67.1224 7.19 67.6724 8.026 68.4644 8.026C68.9924 8.026 69.5864 7.74 69.5864 6.904C69.5864 5.87 68.4204 4.858 66.4404 4.858C63.6684 4.858 61.3144 7.168 61.3144 10.38C61.3144 13.24 63.1844 15.308 65.7364 15.308C67.4524 15.308 68.9044 14.406 69.6964 12.844ZM79.4288 12.844L78.9888 12.58C78.1968 13.526 77.1848 13.922 76.1728 13.922C74.1708 13.922 72.7188 12.14 72.7188 9.654C72.7188 9.566 72.7188 9.214 72.7408 9.126L79.3628 9.214C79.4288 8.906 79.4728 8.422 79.4728 8.048C79.4728 6.156 78.1528 4.858 76.0848 4.858C73.3568 4.858 71.0468 7.168 71.0468 10.38C71.0468 13.24 72.9168 15.308 75.4688 15.308C77.1848 15.308 78.6368 14.406 79.4288 12.844ZM77.7128 8.444C77.8008 8.444 72.8288 8.466 72.8288 8.466C73.1808 6.684 74.4788 5.628 75.6888 5.628C77.0088 5.628 77.8228 6.728 77.7128 8.444ZM91.176 9.764C91.176 7.036 89.592 4.968 87.194 4.968C85.94 4.968 84.796 5.672 84.004 6.53H83.916V4.858L80.77 5.584L80.726 6.178L81.65 6.31C82.222 6.464 82.332 6.596 82.332 7.608V19.246C82.332 19.466 82.178 19.554 81.782 19.576L80.88 19.664L80.814 20.412H85.742L85.676 19.664L84.532 19.576C84.004 19.554 83.916 19.444 83.916 19.268V14.934H83.96C84.554 15.154 85.434 15.33 86.094 15.33C89.24 15.33 91.176 12.734 91.176 9.764ZM89.482 10.38C89.482 12.844 88.118 14.472 86.446 14.472C85.39 14.472 84.598 13.9 83.916 13.262V7.608C84.51 6.926 85.434 6.288 86.534 6.288C88.294 6.288 89.482 7.916 89.482 10.38ZM99.0611 14.076L98.9291 13.504C98.3351 13.834 97.6751 14.076 97.0811 14.076C95.9151 14.076 95.2771 13.526 95.3211 12.074L95.4531 6.222H98.8631L99.0171 5.21H95.4531L95.4751 3.34L94.7051 3.252L93.6711 4.638L92.1751 5.54L92.1531 6.178L93.8911 6.266L93.7591 12.47C93.7371 14.494 94.7711 15.33 96.2671 15.33C97.2351 15.33 98.3571 14.802 99.0611 14.076ZM103.324 1.646C103.324 0.985999 102.95 0.413999 102.202 0.413999C101.454 0.413999 101.08 1.008 101.08 1.646C101.08 2.284 101.454 2.878 102.202 2.878C102.95 2.878 103.324 2.284 103.324 1.646ZM104.82 15L104.754 14.252L103.83 14.164C103.324 14.142 103.214 14.032 103.214 13.856V4.858L100.068 5.584L100.024 6.178L100.904 6.31C101.52 6.464 101.652 6.596 101.652 7.652V13.834C101.652 14.054 101.476 14.142 101.102 14.164L100.178 14.252L100.112 15H104.82ZM115.988 9.874C115.988 6.97 114.03 4.858 111.214 4.858C108.376 4.858 106.11 7.124 106.11 10.138C106.11 13.108 108.024 15.33 110.906 15.33C113.788 15.33 115.988 12.932 115.988 9.874ZM114.272 10.534C114.272 12.932 112.886 14.472 111.126 14.472C110.136 14.472 109.454 14.01 109.058 13.592C108.244 12.756 107.848 11.282 107.848 9.654C107.848 7.256 109.19 5.694 110.994 5.694C111.962 5.694 112.666 6.178 113.084 6.596C113.898 7.454 114.272 8.928 114.272 10.534ZM128.343 15L128.277 14.252L127.397 14.164C126.825 14.12 126.737 14.01 126.737 13.834V8.004C126.737 6.948 126.495 6.134 125.923 5.562C125.439 5.078 124.735 4.858 124.075 4.858C122.843 4.858 121.677 5.496 120.555 6.442H120.445V4.858L117.277 5.584L117.255 6.178L118.179 6.31C118.751 6.464 118.861 6.596 118.861 7.608V13.834C118.861 14.054 118.707 14.142 118.311 14.164L117.431 14.252L117.365 15H122.117L122.051 14.252L121.039 14.164C120.533 14.142 120.445 14.032 120.445 13.856V7.3C121.061 6.794 122.051 6.2 123.063 6.2C124.383 6.2 125.175 6.86 125.175 9.038V13.834C125.175 14.032 125.087 14.142 124.625 14.164L123.723 14.252L123.657 15H128.343ZM147.098 10.864H146.13L145.206 13.834C144.458 14.23 143.446 14.494 142.368 14.494C138.738 14.494 136.67 11.832 136.67 8.048C136.67 4.44 138.892 1.8 142.126 1.8C143.754 1.8 144.722 2.174 145.492 2.614L146.064 5.474H146.988V1.008L145.316 1.36C144.678 1.162 143.534 0.941999 142.258 0.941999C137.968 0.941999 134.668 3.78 134.668 8.334C134.668 12.734 137.946 15.33 142.17 15.33C143.358 15.33 144.744 15.066 145.558 14.802L146.57 15.022L147.098 10.864ZM157.396 12.844L156.956 12.58C156.164 13.526 155.152 13.922 154.14 13.922C152.138 13.922 150.686 12.14 150.686 9.654C150.686 9.566 150.686 9.214 150.708 9.126L157.33 9.214C157.396 8.906 157.44 8.422 157.44 8.048C157.44 6.156 156.12 4.858 154.052 4.858C151.324 4.858 149.014 7.168 149.014 10.38C149.014 13.24 150.884 15.308 153.436 15.308C155.152 15.308 156.604 14.406 157.396 12.844ZM155.68 8.444C155.768 8.444 150.796 8.466 150.796 8.466C151.148 6.684 152.446 5.628 153.656 5.628C154.976 5.628 155.79 6.728 155.68 8.444ZM170.001 15L169.935 14.252L169.055 14.164C168.483 14.12 168.395 14.01 168.395 13.834V8.004C168.395 6.948 168.153 6.134 167.581 5.562C167.097 5.078 166.393 4.858 165.733 4.858C164.501 4.858 163.335 5.496 162.213 6.442H162.103V4.858L158.935 5.584L158.913 6.178L159.837 6.31C160.409 6.464 160.519 6.596 160.519 7.608V13.834C160.519 14.054 160.365 14.142 159.969 14.164L159.089 14.252L159.023 15H163.775L163.709 14.252L162.697 14.164C162.191 14.142 162.103 14.032 162.103 13.856V7.3C162.719 6.794 163.709 6.2 164.721 6.2C166.041 6.2 166.833 6.86 166.833 9.038V13.834C166.833 14.032 166.745 14.142 166.283 14.164L165.381 14.252L165.315 15H170.001ZM178.207 12.206C178.207 10.336 176.711 9.698 175.259 9.148C173.829 8.598 172.839 8.224 172.839 7.146C172.839 6.244 173.609 5.584 174.709 5.584C175.303 5.584 175.963 5.782 176.469 6.112L176.887 8.026H177.855L177.679 4.946L177.019 5.166C176.469 4.99 175.853 4.814 174.885 4.814C172.663 4.814 171.453 6.222 171.453 7.674C171.453 9.566 172.905 10.16 174.357 10.71C175.633 11.172 176.821 11.59 176.821 12.712C176.821 13.834 175.721 14.56 174.643 14.56C173.939 14.56 173.345 14.34 172.839 13.988L172.377 12.03H171.387L171.519 14.868C172.311 15.176 173.345 15.33 174.379 15.33C176.909 15.33 178.207 13.812 178.207 12.206ZM190.6 14.406L189.016 14.054C188.862 14.01 188.818 13.856 188.818 13.636V5.188H185.474L185.54 5.914L186.64 6.002C187.146 6.046 187.234 6.134 187.234 6.332V12.866C186.618 13.394 185.628 13.988 184.616 13.988C183.296 13.988 182.504 13.328 182.504 11.128L182.658 5.188H179.38L179.446 5.914L180.282 6.002C180.854 6.09 180.986 6.024 180.986 6.332L180.942 12.184C180.942 13.218 181.184 14.054 181.756 14.604C182.24 15.11 182.944 15.33 183.604 15.33C184.836 15.33 186.002 14.67 187.124 13.724H187.234V15.33L190.534 14.934L190.6 14.406ZM198.638 12.206C198.638 10.336 197.142 9.698 195.69 9.148C194.26 8.598 193.27 8.224 193.27 7.146C193.27 6.244 194.04 5.584 195.14 5.584C195.734 5.584 196.394 5.782 196.9 6.112L197.318 8.026H198.286L198.11 4.946L197.45 5.166C196.9 4.99 196.284 4.814 195.316 4.814C193.094 4.814 191.884 6.222 191.884 7.674C191.884 9.566 193.336 10.16 194.788 10.71C196.064 11.172 197.252 11.59 197.252 12.712C197.252 13.834 196.152 14.56 195.074 14.56C194.37 14.56 193.776 14.34 193.27 13.988L192.808 12.03H191.818L191.95 14.868C192.742 15.176 193.776 15.33 194.81 15.33C197.34 15.33 198.638 13.812 198.638 12.206ZM203.464 7.146C203.464 6.442 202.914 5.826 202.122 5.826C201.308 5.826 200.736 6.442 200.736 7.146C200.736 7.85 201.308 8.488 202.122 8.488C202.914 8.488 203.464 7.85 203.464 7.146ZM203.464 13.966C203.464 13.262 202.914 12.646 202.122 12.646C201.308 12.646 200.736 13.262 200.736 13.966C200.736 14.67 201.308 15.33 202.122 15.33C202.914 15.33 203.464 14.67 203.464 13.966ZM16.3721 28.156H4.73405V61H16.3721C25.8941 61 32.3801 54.468 32.3801 44.578C32.3801 34.734 25.8941 28.156 16.3721 28.156ZM16.3721 31.468C24.0081 31.468 28.2861 36.666 28.2861 44.578C28.2861 52.536 24.0081 57.688 16.3721 57.688H8.64405V31.468H16.3721ZM59.0665 49.454C59.0665 42.002 54.4665 37.31 48.0725 37.31C41.6785 37.31 37.0785 42.002 37.0785 49.454C37.0785 56.906 41.6785 61.552 48.0725 61.552C54.4665 61.552 59.0665 56.906 59.0665 49.454ZM40.8505 49.454C40.8505 43.888 43.5645 40.392 48.0725 40.392C52.5805 40.392 55.2945 43.888 55.2945 49.454C55.2945 55.02 52.5805 58.47 48.0725 58.47C43.5645 58.47 40.8505 55.02 40.8505 49.454ZM82.0126 61.184C80.4946 65.094 79.4366 66.382 77.1366 66.382C76.5386 66.382 76.0326 66.382 75.2966 66.198V69.326C76.0326 69.464 76.9066 69.556 77.5506 69.556C81.7826 69.51 83.6226 67.21 85.7386 61.69L95.0766 37.862H91.1206L84.1746 56.768H84.0826L76.7226 37.862H72.7206L82.0126 61.184ZM119.981 49.454C119.981 42.002 115.381 37.31 108.987 37.31C102.593 37.31 97.9926 42.002 97.9926 49.454C97.9926 56.906 102.593 61.552 108.987 61.552C115.381 61.552 119.981 56.906 119.981 49.454ZM101.765 49.454C101.765 43.888 104.479 40.392 108.987 40.392C113.495 40.392 116.209 43.888 116.209 49.454C116.209 55.02 113.495 58.47 108.987 58.47C104.479 58.47 101.765 55.02 101.765 49.454ZM145.512 61V37.862H141.648V50.604C141.648 56.17 139.026 58.562 135.53 58.562C131.896 58.562 130.102 56.308 130.102 52.03V37.862H126.238V52.766C126.238 58.378 129.182 61.552 134.426 61.552C137.922 61.552 140.682 59.712 141.786 56.814V61H145.512ZM161.685 54.146C162.099 59.114 166.239 61.552 171.759 61.552C176.957 61.552 180.775 58.562 180.775 54.514C180.775 50.788 178.567 48.948 174.795 48.212L170.195 47.338C167.527 46.832 166.147 46.004 166.147 44.026C166.147 41.772 168.125 40.254 171.207 40.254C174.381 40.254 176.451 41.634 176.727 43.98H180.269C179.809 39.61 176.543 37.31 171.207 37.31C166.101 37.31 162.605 40.346 162.605 44.256C162.605 48.304 165.319 49.822 169.045 50.512L173.139 51.34C176.083 51.892 177.187 52.996 177.187 54.698C177.187 57.182 174.887 58.654 171.713 58.654C168.585 58.654 165.641 57.32 165.365 54.146H161.685ZM206.38 54.192H202.792C201.826 56.998 199.94 58.516 196.812 58.516C192.396 58.516 189.59 55.572 189.406 50.236H206.518V48.718C206.518 42.784 203.436 37.31 196.582 37.31C190.418 37.31 185.68 42.002 185.68 49.546C185.68 56.998 190.28 61.552 196.812 61.552C201.32 61.552 205.322 59.114 206.38 54.192ZM196.582 40.392C200.722 40.392 202.7 43.474 202.792 47.476H189.544C190.188 42.738 192.948 40.392 196.582 40.392ZM232.03 54.192H228.442C227.476 56.998 225.59 58.516 222.462 58.516C218.046 58.516 215.24 55.572 215.056 50.236H232.168V48.718C232.168 42.784 229.086 37.31 222.232 37.31C216.068 37.31 211.33 42.002 211.33 49.546C211.33 56.998 215.93 61.552 222.462 61.552C226.97 61.552 230.972 59.114 232.03 54.192ZM222.232 40.392C226.372 40.392 228.35 43.474 228.442 47.476H215.194C215.838 42.738 218.598 40.392 222.232 40.392ZM18.3675 83.862H14.5035L9.35148 102.86H9.21348L3.83148 83.862H0.0594844L7.05148 107H11.0535L16.2975 88.278H16.4355L21.7715 107H25.7275L32.7195 83.862H29.0395L23.7035 102.86H23.6115L18.3675 83.862ZM41.8573 88.094V73.144H38.0393V107H41.8573V94.258C41.8573 88.692 44.6633 86.438 48.2053 86.438C51.8393 86.438 53.7253 88.646 53.7253 92.924V107H57.5433V92.096C57.5433 86.576 54.4613 83.31 49.2633 83.31C45.7213 83.31 42.9613 85.15 41.8573 88.094ZM79.6546 107H83.4726C83.0126 105.482 82.9206 103.872 82.9206 102.17V91.544C82.9206 85.978 79.4246 83.31 73.8126 83.31C68.8906 83.31 65.2106 85.978 64.7506 90.67H68.4306C68.7066 88.002 70.6386 86.392 73.7206 86.392C76.8946 86.392 79.1486 87.956 79.1486 91.636V92.97L71.6966 93.936C67.0046 94.488 63.6926 96.42 63.6926 100.882C63.6926 105.16 67.1426 107.506 71.1906 107.506C75.0546 107.506 78.2286 105.804 79.2406 103.09C79.2406 104.194 79.3786 105.712 79.6546 107ZM71.9726 104.608C69.0746 104.608 67.5566 102.952 67.5566 100.79C67.5566 97.662 69.9486 96.926 72.8466 96.512L79.1486 95.822V97.892C79.1486 102.354 75.5606 104.608 71.9726 104.608ZM101.631 103.596C100.159 104.056 99.1474 104.148 98.2734 104.148C96.1574 104.148 94.9154 103.32 94.9154 100.882V86.76H101.033V83.862H94.9614V77.974H91.1894V83.862H87.7854V86.76H91.1894V101.066C91.1894 105.344 93.3514 107.368 97.5834 107.368C98.5954 107.368 99.9294 107.23 101.631 106.724V103.596ZM118.005 107H121.961V74.156H118.005V107ZM138.393 100.146C138.807 105.114 142.947 107.552 148.467 107.552C153.665 107.552 157.483 104.562 157.483 100.514C157.483 96.788 155.275 94.948 151.503 94.212L146.903 93.338C144.235 92.832 142.855 92.004 142.855 90.026C142.855 87.772 144.833 86.254 147.915 86.254C151.089 86.254 153.159 87.634 153.435 89.98H156.977C156.517 85.61 153.251 83.31 147.915 83.31C142.809 83.31 139.313 86.346 139.313 90.256C139.313 94.304 142.027 95.822 145.753 96.512L149.847 97.34C152.791 97.892 153.895 98.996 153.895 100.698C153.895 103.182 151.595 104.654 148.421 104.654C145.293 104.654 142.349 103.32 142.073 100.146H138.393ZM183.088 100.192H179.5C178.534 102.998 176.648 104.516 173.52 104.516C169.104 104.516 166.298 101.572 166.114 96.236H183.226V94.718C183.226 88.784 180.144 83.31 173.29 83.31C167.126 83.31 162.388 88.002 162.388 95.546C162.388 102.998 166.988 107.552 173.52 107.552C178.028 107.552 182.03 105.114 183.088 100.192ZM173.29 86.392C177.43 86.392 179.408 89.474 179.5 93.476H166.252C166.896 88.738 169.656 86.392 173.29 86.392ZM208.738 100.192H205.15C204.184 102.998 202.298 104.516 199.17 104.516C194.754 104.516 191.948 101.572 191.764 96.236H208.876V94.718C208.876 88.784 205.794 83.31 198.94 83.31C192.776 83.31 188.038 88.002 188.038 95.546C188.038 102.998 192.638 107.552 199.17 107.552C203.678 107.552 207.68 105.114 208.738 100.192ZM198.94 86.392C203.08 86.392 205.058 89.474 205.15 93.476H191.902C192.546 88.738 195.306 86.392 198.94 86.392ZM234.047 83.126C234.047 78.204 230.551 73.604 223.651 73.604C216.705 73.604 212.795 78.434 212.427 84.23H216.199C216.429 80.32 218.913 76.87 223.651 76.87C228.481 76.87 230.275 80.044 230.275 83.172C230.275 86.484 227.699 88.554 225.537 90.21C222.455 92.556 220.523 94.764 220.431 98.076H224.249C224.387 95.362 225.905 94.166 227.515 92.97C230.597 90.67 234.047 87.956 234.047 83.126ZM219.833 107H224.847V102.124H219.833V107Z" fill="#F3F0ED"/>
</svg>
