<svg width="286" height="35" viewBox="0 0 286 35" fill="none" xmlns="http://www.w3.org/2000/svg">
    <g clip-path="url(#clip0_2680_4500)">
        <path d="M14.1563 12.0779C13.7764 12.0776 13.405 12.1886 13.0889 12.3967C12.7729 12.6049 12.5266 12.9009 12.381 13.2473C12.2354 13.5936 12.1972 13.9749 12.2711 14.3427C12.345 14.7106 12.5278 15.0485 12.7964 15.3138C13.0649 15.5791 13.4071 15.7598 13.7797 15.833C14.1522 15.9063 14.5385 15.8688 14.8895 15.7254C15.2405 15.5819 15.5405 15.3389 15.7516 15.0271C15.9627 14.7153 16.0754 14.3488 16.0754 13.9737C16.075 13.4713 15.8727 12.9895 15.5129 12.6341C15.1532 12.2787 14.6653 12.0787 14.1563 12.0779Z" fill="white"/>
        <path d="M8.93319 12.0779C8.55335 12.0779 8.18204 12.1891 7.86622 12.3974C7.5504 12.6057 7.30424 12.9018 7.15888 13.2482C7.01353 13.5947 6.9755 13.9758 7.0496 14.3436C7.1237 14.7113 7.30661 15.0491 7.57519 15.3143C7.84378 15.5794 8.18598 15.76 8.55852 15.8331C8.93106 15.9063 9.3172 15.8687 9.66813 15.7252C10.019 15.5818 10.319 15.3388 10.53 15.027C10.741 14.7152 10.8537 14.3487 10.8537 13.9737C10.8533 13.471 10.6508 12.9891 10.2908 12.6336C9.93068 12.2781 9.44242 12.0783 8.93319 12.0779Z" fill="white"/>
        <path d="M4.57674 14.7065C4.1969 14.7065 3.8256 14.8177 3.50977 15.026C3.19395 15.2344 2.9478 15.5304 2.80244 15.8769C2.65708 16.2233 2.61905 16.6045 2.69315 16.9722C2.76726 17.34 2.95016 17.6778 3.21875 17.9429C3.48733 18.2081 3.82953 18.3886 4.20207 18.4618C4.57461 18.5349 4.96076 18.4974 5.31168 18.3539C5.6626 18.2104 5.96254 17.9674 6.17357 17.6556C6.3846 17.3439 6.49723 16.9773 6.49723 16.6024C6.49685 16.0997 6.29439 15.6177 5.93431 15.2622C5.57423 14.9068 5.08597 14.7069 4.57674 14.7065Z" fill="white"/>
        <path d="M1.91906 22.8939C2.29896 22.8941 2.6704 22.7832 2.98642 22.5751C3.30243 22.3669 3.5488 22.0709 3.69438 21.7245C3.83996 21.3781 3.87819 20.9969 3.80425 20.6291C3.73031 20.2612 3.54751 19.9233 3.27899 19.658C3.01046 19.3927 2.66826 19.212 2.29568 19.1388C1.92311 19.0655 1.53689 19.103 1.18588 19.2464C0.834874 19.3899 0.53485 19.6328 0.32376 19.9446C0.112671 20.2564 1.05314e-07 20.623 0 20.9981C0.000378143 21.5005 0.20264 21.9823 0.562411 22.3377C0.922181 22.6931 1.41008 22.8931 1.91906 22.8939Z" fill="white"/>
        <path d="M3.83903 26.0517C3.83903 25.6767 3.72639 25.3102 3.51537 24.9984C3.30434 24.6867 3.0044 24.4437 2.65348 24.3002C2.30255 24.1567 1.91641 24.1191 1.54387 24.1923C1.17133 24.2654 0.829131 24.446 0.560546 24.7111C0.291961 24.9763 0.109052 25.3141 0.0349494 25.6818C-0.0391531 26.0496 -0.001121 26.4308 0.144236 26.7772C0.289594 27.1236 0.535747 27.4197 0.85157 27.628C1.16739 27.8363 1.5387 27.9475 1.91854 27.9475C2.42777 27.9471 2.91603 27.7473 3.27611 27.3918C3.63619 27.0364 3.83865 26.5544 3.83903 26.0517Z" fill="white"/>
        <path d="M4.57583 28.6054C4.19634 28.6057 3.82545 28.717 3.51005 28.9254C3.19465 29.1337 2.9489 29.4297 2.80387 29.7758C2.65884 30.122 2.62104 30.5029 2.69525 30.8703C2.76946 31.2376 2.95235 31.5751 3.22079 31.8399C3.48923 32.1047 3.83118 32.2849 4.2034 32.3579C4.57562 32.4309 4.96141 32.3933 5.31199 32.2499C5.66257 32.1065 5.9622 31.8636 6.173 31.5521C6.38381 31.2406 6.49633 30.8744 6.49633 30.4998C6.49595 29.9973 6.29344 29.5154 5.93332 29.1602C5.5732 28.805 5.08493 28.6054 4.57583 28.6054Z" fill="white"/>
        <path d="M8.93319 31.2097C8.55329 31.2097 8.18192 31.3209 7.86607 31.5293C7.55022 31.7377 7.30406 32.0338 7.15875 32.3803C7.01343 32.7268 6.97548 33.1081 7.0497 33.4759C7.12392 33.8437 7.30697 34.1815 7.5757 34.4466C7.84443 34.7116 8.18676 34.8921 8.5594 34.9651C8.93203 35.0381 9.31822 35.0003 9.66912 34.8566C10.02 34.7129 10.3199 34.4697 10.5307 34.1577C10.7416 33.8458 10.854 33.4791 10.8537 33.1041C10.8533 32.6015 10.6508 32.1197 10.2907 31.7645C9.93055 31.4092 9.44229 31.2097 8.93319 31.2097Z" fill="white"/>
        <path d="M14.1563 31.2097C13.7763 31.2094 13.4048 31.3204 13.0888 31.5286C12.7727 31.7368 12.5264 32.0329 12.3808 32.3794C12.2353 32.7258 12.1972 33.1071 12.2712 33.475C12.3453 33.8429 12.5282 34.1808 12.7969 34.4461C13.0655 34.7113 13.4079 34.8919 13.7805 34.965C14.1532 35.0381 14.5395 35.0004 14.8905 34.8567C15.2414 34.7131 15.5414 34.4699 15.7523 34.1579C15.9632 33.8459 16.0756 33.4792 16.0754 33.1041C16.075 32.6018 15.8727 32.1201 15.5129 31.765C15.153 31.4098 14.6651 31.2101 14.1563 31.2097Z" fill="white"/>
        <path d="M21.2227 24.1574C20.8427 24.1571 20.4712 24.2681 20.1552 24.4763C19.8392 24.6845 19.5928 24.9806 19.4472 25.3271C19.3017 25.6736 19.2636 26.0549 19.3376 26.4227C19.4117 26.7906 19.5946 27.1286 19.8633 27.3938C20.132 27.659 20.4743 27.8396 20.847 27.9127C21.2196 27.9858 21.6059 27.9481 21.9569 27.8045C22.3079 27.6608 22.6078 27.4176 22.8187 27.1056C23.0296 26.7936 23.142 26.4269 23.1418 26.0518C23.141 25.5496 22.9386 25.0682 22.5788 24.7131C22.2191 24.358 21.7314 24.1582 21.2227 24.1574Z" fill="white"/>
        <path d="M18.6094 28.6054C18.2295 28.6051 17.858 28.7161 17.5419 28.9243C17.2259 29.1325 16.9795 29.4286 16.834 29.7751C16.6884 30.1215 16.6503 30.5028 16.7243 30.8707C16.7984 31.2386 16.9813 31.5765 17.25 31.8418C17.5187 32.107 17.861 32.2876 18.2337 32.3607C18.6063 32.4338 18.9926 32.3961 19.3436 32.2525C19.6946 32.1088 19.9945 31.8656 20.2054 31.5536C20.4163 31.2416 20.5288 30.8749 20.5285 30.4998C20.5277 29.9976 20.3253 29.5162 19.9656 29.1611C19.6058 28.806 19.1182 28.6062 18.6094 28.6054Z" fill="white"/>
        <path d="M30.8692 31.2097C30.4892 31.2094 30.1177 31.3204 29.8017 31.5286C29.4856 31.7368 29.2393 32.0329 29.0937 32.3794C28.9482 32.7258 28.91 33.1071 28.9841 33.475C29.0582 33.8429 29.2411 34.1808 29.5098 34.4461C29.7784 34.7113 30.1208 34.8919 30.4934 34.965C30.8661 35.0381 31.2524 35.0004 31.6034 34.8567C31.9543 34.7131 32.2543 34.4699 32.4652 34.1579C32.6761 33.8459 32.7885 33.4792 32.7883 33.1041C32.7875 32.6019 32.5851 32.1205 32.2253 31.7654C31.8656 31.4103 31.3779 31.2104 30.8692 31.2097Z" fill="white"/>
        <path d="M30.8683 25.5251C30.4887 25.5251 30.1177 25.6362 29.8021 25.8443C29.4865 26.0525 29.2405 26.3483 29.0953 26.6945C28.95 27.0407 28.912 27.4216 28.9861 27.789C29.0601 28.1565 29.2429 28.4941 29.5113 28.759C29.7797 29.0239 30.1216 29.2044 30.4939 29.2775C30.8661 29.3506 31.252 29.313 31.6027 29.1697C31.9533 29.0263 32.253 28.7835 32.4639 28.4719C32.6748 28.1604 32.7873 27.7941 32.7873 27.4195C32.7866 26.9173 32.5842 26.4358 32.2244 26.0807C31.8647 25.7256 31.377 25.5258 30.8683 25.5251Z" fill="white"/>
        <path d="M30.8692 20.3798C30.4892 20.3795 30.1177 20.4905 29.8017 20.6987C29.4856 20.9069 29.2393 21.203 29.0937 21.5494C28.9482 21.8959 28.91 22.2772 28.9841 22.6451C29.0582 23.013 29.2411 23.3509 29.5098 23.6161C29.7784 23.8814 30.1208 24.0619 30.4934 24.1351C30.8661 24.2082 31.2524 24.1705 31.6034 24.0268C31.9543 23.8832 32.2543 23.64 32.4652 23.328C32.6761 23.016 32.7885 22.6493 32.7883 22.2742C32.7875 21.772 32.5851 21.2906 32.2253 20.9354C31.8656 20.5803 31.3779 20.3805 30.8692 20.3798Z" fill="white"/>
        <path d="M33.2677 19.3139C34.3276 19.3139 35.1868 18.4657 35.1868 17.4195C35.1868 16.3732 34.3276 15.5251 33.2677 15.5251C32.2078 15.5251 31.3486 16.3732 31.3486 17.4195C31.3486 18.4657 32.2078 19.3139 33.2677 19.3139Z" fill="white"/>
        <path d="M37.7515 12.5747C37.3716 12.5747 37.0003 12.686 36.6844 12.8943C36.3686 13.1027 36.1224 13.3989 35.9771 13.7454C35.8318 14.0919 35.7938 14.4731 35.8681 14.8409C35.9423 15.2087 36.1253 15.5465 36.3941 15.8116C36.6628 16.0767 37.0051 16.2571 37.3778 16.3301C37.7504 16.4031 38.1366 16.3654 38.4875 16.2217C38.8384 16.078 39.1382 15.8347 39.3491 15.5228C39.5599 15.2108 39.6723 14.8442 39.672 14.4691C39.6717 13.9666 39.4692 13.4847 39.109 13.1295C38.7489 12.7743 38.2606 12.5747 37.7515 12.5747Z" fill="white"/>
        <path d="M43.1558 12.0779C42.776 12.0779 42.4047 12.1891 42.0889 12.3974C41.7731 12.6057 41.5269 12.9018 41.3815 13.2482C41.2362 13.5947 41.1982 13.9758 41.2723 14.3436C41.3464 14.7113 41.5293 15.0491 41.7979 15.3143C42.0664 15.5794 42.4086 15.76 42.7812 15.8331C43.1537 15.9063 43.5399 15.8687 43.8908 15.7252C44.2417 15.5818 44.5416 15.3388 44.7527 15.027C44.9637 14.7152 45.0763 14.3487 45.0763 13.9737C45.076 13.471 44.8735 12.9891 44.5134 12.6336C44.1533 12.2781 43.6651 12.0783 43.1558 12.0779Z" fill="white"/>
        <path d="M264.777 22.8939C265.157 22.8942 265.529 22.7832 265.845 22.5751C266.161 22.3669 266.407 22.0709 266.553 21.7245C266.698 21.3781 266.737 20.9969 266.663 20.6291C266.589 20.2612 266.406 19.9233 266.137 19.658C265.869 19.3927 265.527 19.212 265.154 19.1388C264.781 19.0655 264.395 19.103 264.044 19.2464C263.693 19.3899 263.393 19.6328 263.182 19.9446C262.971 20.2564 262.858 20.623 262.858 20.9981C262.859 21.5004 263.062 21.9819 263.421 22.3373C263.781 22.6926 264.269 22.8928 264.777 22.8939Z" fill="white"/>
        <path d="M267.339 32.3942C268.399 32.3942 269.258 31.5461 269.258 30.4998C269.258 29.4536 268.399 28.6054 267.339 28.6054C266.279 28.6054 265.42 29.4536 265.42 30.4998C265.42 31.5461 266.279 32.3942 267.339 32.3942Z" fill="white"/>
        <path d="M271.794 31.2097C271.414 31.2097 271.042 31.3209 270.726 31.5293C270.411 31.7377 270.164 32.0338 270.019 32.3803C269.874 32.7268 269.836 33.1081 269.91 33.4759C269.984 33.8437 270.167 34.1815 270.436 34.4466C270.705 34.7116 271.047 34.8921 271.42 34.9651C271.792 35.0381 272.179 35.0003 272.53 34.8566C272.88 34.7129 273.18 34.4697 273.391 34.1577C273.602 33.8458 273.714 33.4791 273.714 33.1041C273.714 32.6015 273.511 32.1197 273.151 31.7645C272.791 31.4092 272.303 31.2097 271.794 31.2097Z" fill="white"/>
        <path d="M273.006 11.9142C272.627 11.9142 272.255 12.0254 271.939 12.2337C271.624 12.442 271.377 12.7381 271.232 13.0845C271.087 13.431 271.049 13.8121 271.123 14.1799C271.197 14.5476 271.38 14.8854 271.648 15.1506C271.917 15.4157 272.259 15.5963 272.632 15.6694C273.004 15.7426 273.39 15.705 273.741 15.5615C274.092 15.4181 274.392 15.1751 274.603 14.8633C274.814 14.5515 274.927 14.185 274.927 13.81C274.927 13.3073 274.724 12.8254 274.364 12.4699C274.004 12.1144 273.516 11.9146 273.006 11.9142Z" fill="white"/>
        <path d="M278.506 12.7695C278.126 12.7687 277.754 12.8792 277.438 13.0871C277.121 13.2949 276.874 13.5908 276.728 13.9372C276.582 14.2837 276.544 14.6651 276.618 15.0331C276.691 15.4012 276.874 15.7394 277.143 16.0049C277.411 16.2704 277.753 16.4513 278.126 16.5246C278.499 16.5979 278.885 16.5604 279.237 16.4169C279.588 16.2733 279.888 16.0301 280.099 15.718C280.31 15.406 280.422 15.0391 280.422 14.6639C280.421 14.1622 280.219 13.6812 279.86 13.3262C279.501 12.9712 279.014 12.771 278.506 12.7695Z" fill="white"/>
        <path d="M277.015 31.2097C276.635 31.2094 276.263 31.3204 275.947 31.5286C275.631 31.7368 275.385 32.0329 275.239 32.3794C275.094 32.7258 275.056 33.1071 275.13 33.475C275.204 33.8429 275.387 34.1808 275.655 34.4461C275.924 34.7113 276.266 34.8919 276.639 34.965C277.012 35.0381 277.398 35.0004 277.749 34.8567C278.1 34.7131 278.4 34.4699 278.611 34.1579C278.822 33.8459 278.934 33.4792 278.934 33.1041C278.933 32.6019 278.731 32.1205 278.371 31.7654C278.011 31.4103 277.524 31.2104 277.015 31.2097Z" fill="white"/>
        <path d="M284.428 18.4969C284.428 18.1218 284.315 17.7553 284.104 17.4435C283.893 17.1317 283.593 16.8887 283.242 16.7452C282.891 16.6018 282.505 16.5643 282.132 16.6376C281.76 16.7108 281.417 16.8915 281.149 17.1568C280.88 17.4221 280.698 17.76 280.624 18.1279C280.55 18.4957 280.588 18.877 280.734 19.2233C280.879 19.5697 281.125 19.8657 281.441 20.0739C281.757 20.282 282.129 20.393 282.509 20.3927C283.018 20.3923 283.506 20.1924 283.866 19.8369C284.226 19.4814 284.428 18.9994 284.428 18.4969Z" fill="white"/>
        <path d="M278.259 21.6448C277.879 21.6446 277.507 21.7555 277.191 21.9638C276.875 22.172 276.629 22.468 276.483 22.8145C276.338 23.161 276.3 23.5423 276.374 23.9102C276.448 24.2781 276.631 24.616 276.899 24.8812C277.168 25.1464 277.51 25.327 277.883 25.4001C278.256 25.4732 278.642 25.4356 278.993 25.2919C279.344 25.1482 279.644 24.905 279.855 24.5931C280.066 24.2811 280.178 23.9143 280.178 23.5393C280.177 23.0371 279.975 22.5556 279.615 22.2005C279.255 21.8454 278.768 21.6456 278.259 21.6448Z" fill="white"/>
        <path d="M284.081 21.6448C283.701 21.6446 283.33 21.7555 283.014 21.9638C282.698 22.172 282.451 22.468 282.306 22.8145C282.16 23.161 282.122 23.5423 282.196 23.9102C282.27 24.2781 282.453 24.616 282.722 24.8812C282.99 25.1464 283.333 25.327 283.705 25.4001C284.078 25.4732 284.464 25.4356 284.815 25.2919C285.166 25.1482 285.466 24.905 285.677 24.5931C285.888 24.2811 286 23.9143 286 23.5393C285.999 23.0371 285.797 22.5556 285.437 22.2005C285.077 21.8454 284.59 21.6456 284.081 21.6448Z" fill="white"/>
        <path d="M272.434 21.6443C272.054 21.6443 271.683 21.7555 271.367 21.9639C271.051 22.1723 270.805 22.4685 270.66 22.815C270.514 23.1615 270.476 23.5427 270.551 23.9105C270.625 24.2783 270.808 24.6161 271.077 24.8812C271.345 25.1463 271.688 25.3267 272.06 25.3997C272.433 25.4727 272.819 25.435 273.17 25.2913C273.521 25.1475 273.821 24.9043 274.032 24.5924C274.242 24.2804 274.355 23.9138 274.355 23.5387C274.354 23.0362 274.152 22.5543 273.792 22.1991C273.431 21.8439 272.943 21.6443 272.434 21.6443Z" fill="white"/>
        <path d="M266.695 26.0517C266.695 25.6767 266.583 25.3102 266.372 24.9984C266.161 24.6867 265.861 24.4437 265.51 24.3002C265.159 24.1567 264.773 24.1191 264.4 24.1923C264.028 24.2654 263.686 24.446 263.417 24.7111C263.148 24.9763 262.965 25.3141 262.891 25.6818C262.817 26.0496 262.855 26.4308 263.001 26.7772C263.146 27.1236 263.392 27.4197 263.708 27.628C264.024 27.8363 264.395 27.9475 264.775 27.9475C265.284 27.9471 265.772 27.7473 266.132 27.3918C266.493 27.0364 266.695 26.5544 266.695 26.0517Z" fill="white"/>
        <path d="M267.839 18.3316C268.899 18.3316 269.758 17.4835 269.758 16.4372C269.758 15.391 268.899 14.5428 267.839 14.5428C266.779 14.5428 265.92 15.391 265.92 16.4372C265.92 17.4835 266.779 18.3316 267.839 18.3316Z" fill="white"/>
        <path d="M49.2935 22.8939C49.6734 22.8939 50.0447 22.7827 50.3605 22.5744C50.6763 22.3661 50.9225 22.07 51.0678 21.7236C51.2132 21.3771 51.2512 20.996 51.1771 20.6282C51.103 20.2604 50.9201 19.9226 50.6515 19.6575C50.3829 19.3924 50.0407 19.2118 49.6682 19.1387C49.2957 19.0655 48.9095 19.1031 48.5586 19.2465C48.2077 19.39 47.9077 19.633 47.6967 19.9448C47.4857 20.2566 47.373 20.6231 47.373 20.9981C47.3734 21.5007 47.5759 21.9827 47.936 22.3382C48.296 22.6936 48.7843 22.8935 49.2935 22.8939Z" fill="white"/>
        <path d="M51.8536 32.3942C52.9135 32.3942 53.7727 31.5461 53.7727 30.4998C53.7727 29.4536 52.9135 28.6054 51.8536 28.6054C50.7938 28.6054 49.9346 29.4536 49.9346 30.4998C49.9346 31.5461 50.7938 32.3942 51.8536 32.3942Z" fill="white"/>
        <path d="M56.3077 31.2097C55.9277 31.2094 55.5562 31.3204 55.2402 31.5286C54.9241 31.7368 54.6777 32.0329 54.5322 32.3794C54.3867 32.7258 54.3485 33.1071 54.4226 33.475C54.4966 33.8429 54.6796 34.1808 54.9482 34.4461C55.2169 34.7113 55.5592 34.8919 55.9319 34.965C56.3046 35.0381 56.6909 35.0004 57.0418 34.8567C57.3928 34.7131 57.6927 34.4699 57.9037 34.1579C58.1146 33.8459 58.227 33.4792 58.2267 33.1041C58.2263 32.6018 58.024 32.1201 57.6642 31.765C57.3044 31.4098 56.8165 31.2101 56.3077 31.2097Z" fill="white"/>
        <path d="M57.5196 11.9142C57.1397 11.9139 56.7682 12.0249 56.4522 12.233C56.1362 12.4412 55.8898 12.7372 55.7443 13.0836C55.5987 13.4299 55.5604 13.8112 55.6344 14.179C55.7083 14.5469 55.8911 14.8848 56.1596 15.1501C56.4282 15.4154 56.7704 15.5961 57.1429 15.6693C57.5155 15.7426 57.9017 15.7051 58.2527 15.5617C58.6038 15.4182 58.9038 15.1752 59.1149 14.8634C59.326 14.5516 59.4386 14.1851 59.4386 13.81C59.4382 13.3076 59.236 12.8258 58.8762 12.4704C58.5164 12.115 58.0286 11.915 57.5196 11.9142Z" fill="white"/>
        <path d="M63.0201 12.7695C62.6402 12.7695 62.2688 12.8808 61.953 13.0891C61.6371 13.2975 61.391 13.5937 61.2457 13.9402C61.1003 14.2867 61.0624 14.6679 61.1366 15.0357C61.2108 15.4035 61.3939 15.7413 61.6626 16.0064C61.9313 16.2715 62.2737 16.4519 62.6463 16.5249C63.0189 16.5979 63.4051 16.5602 63.756 16.4165C64.1069 16.2728 64.4068 16.0295 64.6176 15.7176C64.8285 15.4056 64.9409 15.039 64.9406 14.6639C64.9402 14.1614 64.7377 13.6795 64.3776 13.3243C64.0175 12.9691 63.5292 12.7695 63.0201 12.7695Z" fill="white"/>
        <path d="M61.5293 31.2097C61.1494 31.2094 60.7779 31.3204 60.4618 31.5286C60.1458 31.7368 59.8994 32.0329 59.7539 32.3794C59.6084 32.7258 59.5702 33.1071 59.6443 33.475C59.7183 33.8429 59.9012 34.1808 60.1699 34.4461C60.4386 34.7113 60.7809 34.8919 61.1536 34.965C61.5263 35.0381 61.9125 35.0004 62.2635 34.8567C62.6145 34.7131 62.9144 34.4699 63.1253 34.1579C63.3363 33.8459 63.4487 33.4792 63.4484 33.1041C63.4476 32.6019 63.2452 32.1205 62.8855 31.7654C62.5258 31.4103 62.0381 31.2104 61.5293 31.2097Z" fill="white"/>
        <path d="M68.9435 18.4963C68.9435 18.1214 68.8309 17.7549 68.6198 17.4431C68.4088 17.1313 68.1089 16.8883 67.758 16.7448C67.407 16.6013 67.0209 16.5638 66.6484 16.637C66.2758 16.7101 65.9336 16.8907 65.665 17.1558C65.3964 17.4209 65.2135 17.7587 65.1394 18.1265C65.0653 18.4942 65.1034 18.8754 65.2487 19.2218C65.3941 19.5683 65.6402 19.8644 65.9561 20.0727C66.2719 20.281 66.6432 20.3922 67.023 20.3922C67.5323 20.3918 68.0205 20.1919 68.3806 19.8365C68.7407 19.481 68.9431 18.999 68.9435 18.4963Z" fill="white"/>
        <path d="M62.7769 21.6448C62.397 21.6448 62.0257 21.7561 61.7098 21.9644C61.394 22.1728 61.1478 22.469 61.0025 22.8155C60.8572 23.162 60.8192 23.5432 60.8935 23.911C60.9677 24.2788 61.1507 24.6166 61.4195 24.8817C61.6882 25.1468 62.0305 25.3272 62.4031 25.4002C62.7758 25.4732 63.162 25.4355 63.5129 25.2918C63.8638 25.1481 64.1636 24.9049 64.3745 24.5929C64.5853 24.281 64.6977 23.9143 64.6974 23.5393C64.697 23.0367 64.4945 22.5548 64.1344 22.1996C63.7743 21.8444 63.286 21.6448 62.7769 21.6448Z" fill="white"/>
        <path d="M68.5943 21.6448C68.2144 21.6448 67.8431 21.7561 67.5272 21.9644C67.2113 22.1728 66.9652 22.469 66.8199 22.8155C66.6746 23.162 66.6366 23.5432 66.7108 23.911C66.7851 24.2788 66.9681 24.6166 67.2368 24.8817C67.5056 25.1468 67.8479 25.3272 68.2205 25.4002C68.5931 25.4732 68.9793 25.4355 69.3302 25.2918C69.6811 25.1481 69.981 24.9049 70.1918 24.5929C70.4027 24.281 70.5151 23.9143 70.5148 23.5393C70.5144 23.0367 70.3119 22.5548 69.9518 22.1996C69.5917 21.8444 69.1034 21.6448 68.5943 21.6448Z" fill="white"/>
        <path d="M56.9478 21.6448C56.5679 21.6448 56.1966 21.7561 55.8807 21.9644C55.5649 22.1728 55.3187 22.469 55.1734 22.8155C55.0281 23.162 54.9901 23.5432 55.0644 23.911C55.1386 24.2788 55.3216 24.6166 55.5904 24.8817C55.8591 25.1468 56.2014 25.3272 56.574 25.4002C56.9467 25.4732 57.3329 25.4355 57.6838 25.2918C58.0347 25.1481 58.3345 24.9049 58.5454 24.5929C58.7562 24.281 58.8686 23.9143 58.8683 23.5393C58.868 23.0367 58.6655 22.5548 58.3053 22.1996C57.9452 21.8444 57.4569 21.6448 56.9478 21.6448Z" fill="white"/>
        <path d="M51.2121 26.0517C51.2121 25.6767 51.0994 25.3101 50.8883 24.9983C50.6772 24.6865 50.3772 24.4435 50.0262 24.3C49.6752 24.1566 49.289 24.1191 48.9164 24.1924C48.5438 24.2657 48.2016 24.4464 47.9331 24.7116C47.6646 24.9769 47.4818 25.3148 47.4078 25.6827C47.3339 26.0505 47.3721 26.4318 47.5177 26.7782C47.6633 27.1246 47.9096 27.4206 48.2257 27.6287C48.5417 27.8368 48.9131 27.9478 49.293 27.9475C49.8021 27.9471 50.2902 27.7472 50.6501 27.3917C51.0099 27.0362 51.2121 26.5542 51.2121 26.0517Z" fill="white"/>
        <path d="M52.3527 18.3316C53.4125 18.3316 54.2717 17.4835 54.2717 16.4372C54.2717 15.391 53.4125 14.5428 52.3527 14.5428C51.2928 14.5428 50.4336 15.391 50.4336 16.4372C50.4336 17.4835 51.2928 18.3316 52.3527 18.3316Z" fill="white"/>
        <path d="M76.5142 22.8939C76.894 22.8939 77.2653 22.7827 77.5812 22.5744C77.897 22.3661 78.1431 22.07 78.2885 21.7236C78.4338 21.3771 78.4719 20.996 78.3978 20.6282C78.3237 20.2604 78.1408 19.9226 77.8722 19.6575C77.6036 19.3924 77.2614 19.2118 76.8889 19.1387C76.5163 19.0655 76.1302 19.1031 75.7793 19.2465C75.4284 19.39 75.1284 19.633 74.9174 19.9448C74.7064 20.2566 74.5937 20.6231 74.5938 20.9981C74.5941 21.5007 74.7966 21.9827 75.1567 22.3382C75.5167 22.6936 76.005 22.8935 76.5142 22.8939Z" fill="white"/>
        <path d="M79.0743 32.3942C80.1342 32.3942 80.9934 31.5461 80.9934 30.4998C80.9934 29.4536 80.1342 28.6054 79.0743 28.6054C78.0145 28.6054 77.1553 29.4536 77.1553 30.4998C77.1553 31.5461 78.0145 32.3942 79.0743 32.3942Z" fill="white"/>
        <path d="M93.2023 32.3942C94.2621 32.3942 95.1213 31.5461 95.1213 30.4998C95.1213 29.4536 94.2621 28.6054 93.2023 28.6054C92.1424 28.6054 91.2832 29.4536 91.2832 30.4998C91.2832 31.5461 92.1424 32.3942 93.2023 32.3942Z" fill="white"/>
        <path d="M83.5284 31.2097C83.1484 31.2094 82.7769 31.3204 82.4609 31.5286C82.1448 31.7368 81.8984 32.0329 81.7529 32.3794C81.6074 32.7258 81.5692 33.1071 81.6433 33.475C81.7173 33.8429 81.9003 34.1808 82.1689 34.4461C82.4376 34.7113 82.7799 34.8919 83.1526 34.965C83.5253 35.0381 83.9115 35.0004 84.2625 34.8567C84.6135 34.7131 84.9134 34.4699 85.1243 34.1579C85.3353 33.8459 85.4477 33.4792 85.4474 33.1041C85.4466 32.6019 85.2442 32.1205 84.8845 31.7654C84.5248 31.4103 84.0371 31.2104 83.5284 31.2097Z" fill="white"/>
        <path d="M83.5284 12.0779C83.1485 12.0776 82.777 12.1886 82.461 12.3967C82.145 12.6049 81.8986 12.9009 81.753 13.2473C81.6075 13.5936 81.5692 13.9749 81.6432 14.3427C81.7171 14.7106 81.8999 15.0485 82.1684 15.3138C82.437 15.5791 82.7792 15.7598 83.1517 15.833C83.5243 15.9063 83.9105 15.8688 84.2615 15.7254C84.6125 15.5819 84.9126 15.3389 85.1236 15.0271C85.3347 14.7153 85.4474 14.3488 85.4474 13.9737C85.4467 13.4714 85.2443 12.9898 84.8846 12.6345C84.5249 12.2792 84.0372 12.079 83.5284 12.0779Z" fill="white"/>
        <path d="M88.75 12.0779C88.3701 12.0776 87.9987 12.1886 87.6827 12.3967C87.3667 12.6049 87.1203 12.9009 86.9747 13.2473C86.8291 13.5936 86.7909 13.9749 86.8649 14.3427C86.9388 14.7106 87.1216 15.0485 87.3901 15.3138C87.6586 15.5791 88.0008 15.7598 88.3734 15.833C88.746 15.9063 89.1322 15.8688 89.4832 15.7254C89.8342 15.5819 90.1342 15.3389 90.3453 15.0271C90.5564 14.7153 90.6691 14.3488 90.6691 13.9737C90.6683 13.4714 90.4659 12.9898 90.1063 12.6345C89.7466 12.2792 89.2589 12.079 88.75 12.0779Z" fill="white"/>
        <path d="M88.75 31.2097C88.3701 31.2094 87.9986 31.3204 87.6825 31.5286C87.3665 31.7368 87.1201 32.0329 86.9746 32.3794C86.8291 32.7258 86.7909 33.1071 86.865 33.475C86.939 33.8429 87.1219 34.1808 87.3906 34.4461C87.6593 34.7113 88.0016 34.8919 88.3743 34.965C88.747 35.0381 89.1332 35.0004 89.4842 34.8567C89.8352 34.7131 90.1351 34.4699 90.346 34.1579C90.5569 33.8459 90.6694 33.4792 90.6691 33.1041C90.6683 32.6019 90.4659 32.1205 90.1062 31.7654C89.7464 31.4103 89.2588 31.2104 88.75 31.2097Z" fill="white"/>
        <path d="M95.8101 19.1038C95.4302 19.1038 95.0589 19.215 94.743 19.4234C94.4272 19.6318 94.181 19.9279 94.0357 20.2744C93.8904 20.6209 93.8524 21.0022 93.9267 21.37C94.0009 21.7378 94.1839 22.0756 94.4527 22.3407C94.7214 22.6057 95.0637 22.7862 95.4363 22.8592C95.809 22.9322 96.1952 22.8944 96.5461 22.7507C96.897 22.607 97.1968 22.3638 97.4077 22.0519C97.6185 21.7399 97.7309 21.3732 97.7306 20.9982C97.7303 20.4956 97.5278 20.0138 97.1676 19.6586C96.8075 19.3033 96.3192 19.1038 95.8101 19.1038Z" fill="white"/>
        <path d="M95.8136 27.9473C96.8735 27.9473 97.7326 27.0991 97.7326 26.0529C97.7326 25.0066 96.8735 24.1584 95.8136 24.1584C94.7537 24.1584 93.8945 25.0066 93.8945 26.0529C93.8945 27.0991 94.7537 27.9473 95.8136 27.9473Z" fill="white"/>
        <path d="M97.7354 31.2097C97.3554 31.2094 96.9839 31.3204 96.6679 31.5286C96.3518 31.7368 96.1055 32.0329 95.9599 32.3794C95.8144 32.7258 95.7763 33.1071 95.8503 33.475C95.9244 33.8429 96.1073 34.1808 96.376 34.4461C96.6446 34.7113 96.987 34.8919 97.3596 34.965C97.7323 35.0381 98.1186 35.0004 98.4696 34.8567C98.8205 34.7131 99.1205 34.4699 99.3314 34.1579C99.5423 33.8459 99.6547 33.4792 99.6544 33.1041C99.6537 32.6019 99.4513 32.1205 99.0915 31.7654C98.7318 31.4103 98.2441 31.2104 97.7354 31.2097Z" fill="white"/>
        <path d="M95.1242 16.6022C95.1245 16.2272 95.0121 15.8605 94.8012 15.5486C94.5904 15.2366 94.2905 14.9934 93.9396 14.8497C93.5887 14.706 93.2025 14.6683 92.8299 14.7412C92.4573 14.8142 92.1149 14.9947 91.8462 15.2598C91.5775 15.5248 91.3944 15.8626 91.3202 16.2304C91.246 16.5982 91.2839 16.9795 91.4293 17.326C91.5746 17.6725 91.8207 17.9687 92.1366 18.177C92.4524 18.3854 92.8238 18.4966 93.2037 18.4966C93.7126 18.4959 94.2004 18.2961 94.5604 17.941C94.9203 17.586 95.1231 17.1046 95.1242 16.6022Z" fill="white"/>
        <path d="M128.986 12.4659C128.606 12.4657 128.235 12.5766 127.919 12.7849C127.603 12.9931 127.356 13.2891 127.211 13.6356C127.065 13.9821 127.027 14.3634 127.101 14.7313C127.175 15.0992 127.358 15.4371 127.627 15.7023C127.896 15.9675 128.238 16.1481 128.611 16.2212C128.983 16.2943 129.37 16.2567 129.721 16.113C130.072 15.9693 130.372 15.7261 130.582 15.4141C130.793 15.1022 130.906 14.7354 130.906 14.3603C130.905 13.858 130.703 13.3764 130.343 13.0212C129.983 12.666 129.495 12.4663 128.986 12.4659Z" fill="white"/>
        <path d="M135.205 20.7709C134.825 20.7706 134.454 20.8816 134.138 21.0898C133.822 21.298 133.575 21.5941 133.43 21.9405C133.284 22.287 133.246 22.6683 133.32 23.0362C133.394 23.4041 133.577 23.742 133.846 24.0072C134.114 24.2725 134.457 24.4531 134.829 24.5262C135.202 24.5993 135.588 24.5616 135.939 24.4179C136.29 24.2743 136.59 24.0311 136.801 23.7191C137.012 23.4071 137.124 23.0404 137.124 22.6653C137.123 22.1631 136.921 21.6817 136.561 21.3266C136.202 20.9715 135.714 20.7716 135.205 20.7709Z" fill="white"/>
        <path d="M135.205 25.8245C134.825 25.8242 134.454 25.9352 134.138 26.1434C133.822 26.3516 133.575 26.6477 133.43 26.9942C133.284 27.3406 133.246 27.7219 133.32 28.0898C133.394 28.4577 133.577 28.7956 133.846 29.0609C134.114 29.3261 134.457 29.5067 134.829 29.5798C135.202 29.6529 135.588 29.6152 135.939 29.4716C136.29 29.3279 136.59 29.0847 136.801 28.7727C137.012 28.4607 137.124 28.094 137.124 27.7189C137.123 27.2167 136.921 26.7353 136.561 26.3802C136.202 26.0251 135.714 25.8252 135.205 25.8245Z" fill="white"/>
        <path d="M135.355 17.6114C135.355 17.2364 135.243 16.8697 135.032 16.5577C134.821 16.2458 134.521 16.0026 134.17 15.8589C133.819 15.7152 133.433 15.6774 133.06 15.7504C132.688 15.8234 132.345 16.0038 132.077 16.2689C131.808 16.534 131.625 16.8718 131.551 17.2396C131.476 17.6074 131.514 17.9886 131.66 18.3351C131.805 18.6816 132.051 18.9778 132.367 19.1862C132.683 19.3946 133.054 19.5058 133.434 19.5058C133.943 19.505 134.431 19.3052 134.791 18.9502C135.151 18.5951 135.354 18.1137 135.355 17.6114Z" fill="white"/>
        <path d="M113.875 12.4659C113.495 12.4659 113.123 12.5772 112.807 12.7855C112.492 12.9939 112.245 13.2901 112.1 13.6366C111.955 13.9831 111.917 14.3643 111.991 14.7321C112.065 15.0999 112.248 15.4377 112.517 15.7028C112.786 15.9679 113.128 16.1483 113.501 16.2213C113.873 16.2943 114.26 16.2566 114.611 16.1129C114.961 15.9692 115.261 15.7259 115.472 15.414C115.683 15.102 115.795 14.7354 115.795 14.3603C115.795 13.8578 115.592 13.3759 115.232 13.0207C114.872 12.6655 114.384 12.4659 113.875 12.4659Z" fill="white"/>
        <path d="M123.123 12.0779C122.743 12.0779 122.372 12.1891 122.056 12.3974C121.74 12.6057 121.494 12.9018 121.348 13.2482C121.203 13.5947 121.165 13.9758 121.239 14.3436C121.313 14.7113 121.496 15.0491 121.765 15.3143C122.033 15.5794 122.375 15.76 122.748 15.8331C123.121 15.9063 123.507 15.8687 123.858 15.7252C124.209 15.5818 124.508 15.3388 124.72 15.027C124.931 14.7152 125.043 14.3487 125.043 13.9737C125.043 13.471 124.84 12.9891 124.48 12.6336C124.12 12.2781 123.632 12.0783 123.123 12.0779Z" fill="white"/>
        <path d="M107.658 12.0779C107.278 12.0779 106.907 12.1891 106.591 12.3974C106.275 12.6057 106.029 12.9018 105.883 13.2482C105.738 13.5947 105.7 13.9758 105.774 14.3436C105.848 14.7113 106.031 15.0491 106.3 15.3143C106.568 15.5794 106.911 15.76 107.283 15.8331C107.656 15.9063 108.042 15.8687 108.393 15.7252C108.744 15.5818 109.044 15.3388 109.255 15.027C109.466 14.7152 109.578 14.3487 109.578 13.9737C109.578 13.471 109.375 12.9891 109.015 12.6336C108.655 12.2781 108.167 12.0783 107.658 12.0779Z" fill="white"/>
        <path d="M107.658 16.8622C107.278 16.8622 106.907 16.9734 106.591 17.1818C106.275 17.3901 106.029 17.6863 105.883 18.0328C105.738 18.3793 105.7 18.7606 105.774 19.1284C105.849 19.4961 106.032 19.8339 106.3 20.099C106.569 20.3641 106.911 20.5445 107.284 20.6175C107.657 20.6905 108.043 20.6528 108.394 20.5091C108.745 20.3654 109.044 20.1222 109.255 19.8102C109.466 19.4983 109.579 19.1316 109.578 18.7566C109.578 18.254 109.375 17.7722 109.015 17.4169C108.655 17.0617 108.167 16.8622 107.658 16.8622Z" fill="white"/>
        <path d="M107.658 25.4337C108.718 25.4337 109.577 24.5855 109.577 23.5392C109.577 22.493 108.718 21.6448 107.658 21.6448C106.598 21.6448 105.739 22.493 105.739 23.5392C105.739 24.5855 106.598 25.4337 107.658 25.4337Z" fill="white"/>
        <path d="M107.658 30.2158C108.718 30.2158 109.577 29.3677 109.577 28.3214C109.577 27.2752 108.718 26.427 107.658 26.427C106.598 26.427 105.739 27.2752 105.739 28.3214C105.739 29.3677 106.598 30.2158 107.658 30.2158Z" fill="white"/>
        <path d="M107.658 31.2097C107.278 31.2097 106.907 31.3209 106.591 31.5293C106.275 31.7377 106.029 32.0338 105.883 32.3803C105.738 32.7268 105.7 33.1081 105.774 33.4759C105.849 33.8437 106.032 34.1815 106.3 34.4466C106.569 34.7116 106.911 34.8921 107.284 34.9651C107.657 35.0381 108.043 35.0003 108.394 34.8566C108.745 34.7129 109.044 34.4697 109.255 34.1577C109.466 33.8458 109.579 33.4791 109.578 33.1041C109.578 32.6015 109.375 32.1197 109.015 31.7645C108.655 31.4092 108.167 31.2097 107.658 31.2097Z" fill="white"/>
        <path d="M121.176 20.7709C120.796 20.7709 120.425 20.8821 120.109 21.0905C119.793 21.2989 119.547 21.595 119.402 21.9415C119.257 22.288 119.219 22.6693 119.293 23.0371C119.367 23.4049 119.55 23.7427 119.819 24.0077C120.088 24.2728 120.43 24.4533 120.803 24.5263C121.175 24.5993 121.561 24.5615 121.912 24.4178C122.263 24.2741 122.563 24.0309 122.774 23.7189C122.985 23.407 123.097 23.0403 123.097 22.6653C123.096 22.1627 122.894 21.6809 122.534 21.3256C122.174 20.9704 121.685 20.7709 121.176 20.7709Z" fill="white"/>
        <path d="M121.176 25.8245C120.796 25.8245 120.425 25.9357 120.109 26.1441C119.793 26.3525 119.547 26.6486 119.402 26.9951C119.257 27.3416 119.219 27.7229 119.293 28.0907C119.367 28.4585 119.55 28.7963 119.819 29.0614C120.088 29.3264 120.43 29.5069 120.803 29.5799C121.175 29.6529 121.561 29.6151 121.912 29.4714C122.263 29.3277 122.563 29.0845 122.774 28.7725C122.985 28.4606 123.097 28.0939 123.097 27.7189C123.096 27.2163 122.894 26.7345 122.534 26.3793C122.174 26.024 121.685 25.8245 121.176 25.8245Z" fill="white"/>
        <path d="M121.176 31.2097C120.796 31.2097 120.425 31.3209 120.109 31.5293C119.793 31.7377 119.547 32.0338 119.402 32.3803C119.257 32.7268 119.219 33.1081 119.293 33.4759C119.367 33.8437 119.55 34.1815 119.819 34.4466C120.088 34.7116 120.43 34.8921 120.803 34.9651C121.175 35.0381 121.561 35.0003 121.912 34.8566C122.263 34.7129 122.563 34.4697 122.774 34.1577C122.985 33.8458 123.097 33.4791 123.097 33.1041C123.096 32.6015 122.894 32.1197 122.534 31.7645C122.174 31.4092 121.685 31.2097 121.176 31.2097Z" fill="white"/>
        <path d="M135.205 31.2097C134.825 31.2094 134.454 31.3204 134.138 31.5286C133.822 31.7368 133.575 32.0329 133.43 32.3794C133.284 32.7258 133.246 33.1071 133.32 33.475C133.394 33.8429 133.577 34.1808 133.846 34.4461C134.114 34.7113 134.457 34.8919 134.829 34.965C135.202 35.0381 135.588 35.0004 135.939 34.8567C136.29 34.7131 136.59 34.4699 136.801 34.1579C137.012 33.8459 137.124 33.4792 137.124 33.1041C137.123 32.6019 136.921 32.1205 136.561 31.7654C136.202 31.4103 135.714 31.2104 135.205 31.2097Z" fill="white"/>
        <path d="M121.159 17.6114C121.16 17.2363 121.047 16.8696 120.836 16.5576C120.625 16.2456 120.325 16.0024 119.974 15.8587C119.623 15.7151 119.237 15.6774 118.865 15.7505C118.492 15.8236 118.15 16.0042 117.881 16.2694C117.612 16.5346 117.429 16.8726 117.355 17.2405C117.281 17.6083 117.319 17.9896 117.465 18.3361C117.61 18.6826 117.857 18.9787 118.173 19.1869C118.489 19.3951 118.86 19.5061 119.24 19.5058C119.749 19.505 120.237 19.3052 120.596 18.9501C120.956 18.595 121.159 18.1136 121.159 17.6114Z" fill="white"/>
        <path d="M238.165 12.0779C237.785 12.0776 237.414 12.1886 237.098 12.3967C236.782 12.6049 236.535 12.9009 236.39 13.2473C236.244 13.5936 236.206 13.9749 236.28 14.3427C236.354 14.7106 236.537 15.0485 236.805 15.3138C237.074 15.5791 237.416 15.7598 237.788 15.833C238.161 15.9063 238.547 15.8688 238.898 15.7254C239.249 15.5819 239.549 15.3389 239.76 15.0271C239.971 14.7153 240.084 14.3488 240.084 13.9737C240.083 13.4714 239.881 12.9898 239.521 12.6345C239.162 12.2792 238.674 12.079 238.165 12.0779Z" fill="white"/>
        <path d="M238.165 18.4557C237.785 18.4554 237.414 18.5664 237.098 18.7746C236.782 18.9828 236.535 19.2789 236.39 19.6254C236.244 19.9718 236.206 20.3531 236.28 20.721C236.354 21.0889 236.537 21.4268 236.806 21.6921C237.074 21.9573 237.417 22.1379 237.789 22.211C238.162 22.2841 238.548 22.2464 238.899 22.1028C239.25 21.9591 239.55 21.7159 239.761 21.4039C239.972 21.0919 240.084 20.7252 240.084 20.3501C240.083 19.8479 239.881 19.3665 239.521 19.0114C239.161 18.6563 238.674 18.4564 238.165 18.4557Z" fill="white"/>
        <path d="M238.165 24.8319C237.785 24.8316 237.414 24.9426 237.098 25.1507C236.782 25.3589 236.535 25.6549 236.39 26.0013C236.244 26.3476 236.206 26.7289 236.28 27.0967C236.354 27.4646 236.537 27.8025 236.805 28.0678C237.074 28.3331 237.416 28.5138 237.788 28.587C238.161 28.6603 238.547 28.6228 238.898 28.4794C239.249 28.3359 239.549 28.0929 239.76 27.7811C239.971 27.4693 240.084 27.1028 240.084 26.7277C240.083 26.2254 239.881 25.7438 239.521 25.3885C239.162 25.0332 238.674 24.833 238.165 24.8319Z" fill="white"/>
        <path d="M238.165 31.2097C237.785 31.2094 237.414 31.3204 237.098 31.5286C236.782 31.7368 236.535 32.0329 236.39 32.3794C236.244 32.7258 236.206 33.1071 236.28 33.475C236.354 33.8429 236.537 34.1808 236.806 34.4461C237.074 34.7113 237.417 34.8919 237.789 34.965C238.162 35.0381 238.548 35.0004 238.899 34.8567C239.25 34.7131 239.55 34.4699 239.761 34.1579C239.972 33.8459 240.084 33.4792 240.084 33.1041C240.083 32.6019 239.881 32.1205 239.521 31.7654C239.161 31.4103 238.674 31.2104 238.165 31.2097Z" fill="white"/>
        <path d="M227.881 12.0779C227.501 12.0776 227.13 12.1886 226.814 12.3967C226.498 12.6049 226.251 12.9009 226.106 13.2473C225.96 13.5936 225.922 13.9749 225.996 14.3427C226.07 14.7106 226.252 15.0485 226.521 15.3138C226.79 15.5791 227.132 15.7598 227.504 15.833C227.877 15.9063 228.263 15.8688 228.614 15.7254C228.965 15.5819 229.265 15.3389 229.476 15.0271C229.687 14.7153 229.8 14.3488 229.8 13.9737C229.799 13.4714 229.597 12.9898 229.237 12.6345C228.878 12.2792 228.39 12.079 227.881 12.0779Z" fill="white"/>
        <path d="M227.881 0.0336919C227.501 0.0334128 227.129 0.144399 226.813 0.352607C226.497 0.560815 226.251 0.856887 226.105 1.20336C225.96 1.54983 225.922 1.93114 225.996 2.29902C226.07 2.66691 226.253 3.00484 226.522 3.27006C226.79 3.53528 227.133 3.71587 227.505 3.78897C227.878 3.86208 228.264 3.82442 228.615 3.68075C228.966 3.53709 229.266 3.29388 229.477 2.98189C229.688 2.66991 229.8 2.30318 229.8 1.9281C229.799 1.4259 229.597 0.944485 229.237 0.589376C228.877 0.234267 228.39 0.0344387 227.881 0.0336919Z" fill="white"/>
        <path d="M227.881 18.4557C227.501 18.4554 227.129 18.5664 226.813 18.7746C226.497 18.9828 226.251 19.2789 226.105 19.6254C225.96 19.9718 225.922 20.3531 225.996 20.721C226.07 21.0889 226.253 21.4268 226.522 21.6921C226.79 21.9573 227.133 22.1379 227.505 22.211C227.878 22.2841 228.264 22.2464 228.615 22.1028C228.966 21.9591 229.266 21.7159 229.477 21.4039C229.688 21.0919 229.8 20.7252 229.8 20.3501C229.799 19.8479 229.597 19.3665 229.237 19.0114C228.877 18.6563 228.39 18.4564 227.881 18.4557Z" fill="white"/>
        <path d="M227.881 24.8319C227.501 24.8316 227.13 24.9426 226.814 25.1507C226.498 25.3589 226.251 25.6549 226.106 26.0013C225.96 26.3476 225.922 26.7289 225.996 27.0967C226.07 27.4646 226.252 27.8025 226.521 28.0678C226.79 28.3331 227.132 28.5138 227.504 28.587C227.877 28.6603 228.263 28.6228 228.614 28.4794C228.965 28.3359 229.265 28.0929 229.476 27.7811C229.687 27.4693 229.8 27.1028 229.8 26.7277C229.799 26.2254 229.597 25.7438 229.237 25.3885C228.878 25.0332 228.39 24.833 227.881 24.8319Z" fill="white"/>
        <path d="M227.881 31.2097C227.501 31.2094 227.129 31.3204 226.813 31.5286C226.497 31.7368 226.251 32.0329 226.105 32.3794C225.96 32.7258 225.922 33.1071 225.996 33.475C226.07 33.8429 226.253 34.1808 226.522 34.4461C226.79 34.7113 227.133 34.8919 227.505 34.965C227.878 35.0381 228.264 35.0004 228.615 34.8567C228.966 34.7131 229.266 34.4699 229.477 34.1579C229.688 33.8459 229.8 33.4792 229.8 33.1041C229.799 32.6019 229.597 32.1205 229.237 31.7654C228.877 31.4103 228.39 31.2104 227.881 31.2097Z" fill="white"/>
        <path d="M78.4328 26.0517C78.4328 25.6767 78.3201 25.3101 78.109 24.9983C77.8979 24.6865 77.5979 24.4435 77.2469 24.3C76.8959 24.1566 76.5097 24.1191 76.1371 24.1924C75.7645 24.2657 75.4223 24.4464 75.1538 24.7116C74.8853 24.9769 74.7025 25.3148 74.6285 25.6827C74.5546 26.0505 74.5928 26.4318 74.7384 26.7782C74.884 27.1246 75.1303 27.4206 75.4464 27.6287C75.7624 27.8368 76.1338 27.9478 76.5137 27.9475C77.0228 27.9471 77.5109 27.7472 77.8708 27.3917C78.2306 27.0362 78.4328 26.5542 78.4328 26.0517Z" fill="white"/>
        <path d="M79.0743 18.4969C80.1342 18.4969 80.9934 17.6488 80.9934 16.6025C80.9934 15.5563 80.1342 14.7081 79.0743 14.7081C78.0145 14.7081 77.1553 15.5563 77.1553 16.6025C77.1553 17.6488 78.0145 18.4969 79.0743 18.4969Z" fill="white"/>
        <path d="M144.121 22.8939C144.501 22.8939 144.872 22.7827 145.188 22.5744C145.503 22.3661 145.75 22.07 145.895 21.7236C146.04 21.3771 146.078 20.996 146.004 20.6282C145.93 20.2604 145.747 19.9226 145.479 19.6575C145.21 19.3924 144.868 19.2118 144.495 19.1387C144.123 19.0655 143.737 19.1031 143.386 19.2465C143.035 19.39 142.735 19.633 142.524 19.9448C142.313 20.2566 142.2 20.6231 142.2 20.9981C142.201 21.5007 142.403 21.9827 142.763 22.3382C143.123 22.6936 143.611 22.8935 144.121 22.8939Z" fill="white"/>
        <path d="M146.68 32.3942C147.74 32.3942 148.599 31.5461 148.599 30.4998C148.599 29.4536 147.74 28.6054 146.68 28.6054C145.62 28.6054 144.761 29.4536 144.761 30.4998C144.761 31.5461 145.62 32.3942 146.68 32.3942Z" fill="white"/>
        <path d="M160.809 32.3942C161.869 32.3942 162.728 31.5461 162.728 30.4998C162.728 29.4536 161.869 28.6054 160.809 28.6054C159.749 28.6054 158.89 29.4536 158.89 30.4998C158.89 31.5461 159.749 32.3942 160.809 32.3942Z" fill="white"/>
        <path d="M151.134 31.2097C150.754 31.2094 150.382 31.3204 150.066 31.5286C149.75 31.7368 149.504 32.0329 149.358 32.3794C149.213 32.7258 149.175 33.1071 149.249 33.475C149.323 33.8429 149.506 34.1808 149.774 34.4461C150.043 34.7113 150.385 34.8919 150.758 34.965C151.131 35.0381 151.517 35.0004 151.868 34.8567C152.219 34.7131 152.519 34.4699 152.73 34.1579C152.941 33.8459 153.053 33.4792 153.053 33.1041C153.052 32.6019 152.85 32.1205 152.49 31.7654C152.13 31.4103 151.643 31.2104 151.134 31.2097Z" fill="white"/>
        <path d="M151.134 12.0779C150.754 12.0776 150.382 12.1886 150.066 12.3967C149.75 12.6049 149.504 12.9009 149.359 13.2473C149.213 13.5936 149.175 13.9749 149.249 14.3427C149.323 14.7106 149.505 15.0485 149.774 15.3138C150.042 15.5791 150.385 15.7598 150.757 15.833C151.13 15.9063 151.516 15.8688 151.867 15.7254C152.218 15.5819 152.518 15.3389 152.729 15.0271C152.94 14.7153 153.053 14.3488 153.053 13.9737C153.052 13.4714 152.85 12.9898 152.49 12.6345C152.13 12.2792 151.643 12.079 151.134 12.0779Z" fill="white"/>
        <path d="M156.357 12.0779C155.977 12.0776 155.605 12.1886 155.289 12.3967C154.973 12.6049 154.727 12.9009 154.581 13.2473C154.436 13.5936 154.397 13.9749 154.471 14.3427C154.545 14.7106 154.728 15.0485 154.997 15.3138C155.265 15.5791 155.607 15.7598 155.98 15.833C156.352 15.9063 156.739 15.8688 157.09 15.7254C157.441 15.5819 157.741 15.3389 157.952 15.0271C158.163 14.7153 158.276 14.3488 158.276 13.9737C158.275 13.4714 158.072 12.9898 157.713 12.6345C157.353 12.2792 156.865 12.079 156.357 12.0779Z" fill="white"/>
        <path d="M156.357 31.2097C155.977 31.2094 155.605 31.3204 155.289 31.5286C154.973 31.7368 154.727 32.0329 154.581 32.3794C154.436 32.7258 154.397 33.1071 154.471 33.475C154.545 33.8429 154.728 34.1808 154.997 34.4461C155.266 34.7113 155.608 34.8919 155.981 34.965C156.353 35.0381 156.74 35.0004 157.091 34.8567C157.442 34.7131 157.742 34.4699 157.953 34.1579C158.163 33.8459 158.276 33.4792 158.276 33.1041C158.275 32.6019 158.072 32.1205 157.713 31.7654C157.353 31.4103 156.865 31.2104 156.357 31.2097Z" fill="white"/>
        <path d="M163.421 19.1038C163.041 19.1038 162.669 19.215 162.353 19.4234C162.038 19.6318 161.791 19.9279 161.646 20.2744C161.501 20.6209 161.463 21.0022 161.537 21.37C161.611 21.7378 161.794 22.0756 162.063 22.3407C162.332 22.6057 162.674 22.7862 163.047 22.8592C163.419 22.9322 163.806 22.8944 164.156 22.7507C164.507 22.607 164.807 22.3638 165.018 22.0519C165.229 21.7399 165.341 21.3732 165.341 20.9982C165.341 20.4956 165.138 20.0138 164.778 19.6586C164.418 19.3033 163.93 19.1038 163.421 19.1038Z" fill="white"/>
        <path d="M163.419 27.9473C164.479 27.9473 165.338 27.0991 165.338 26.0529C165.338 25.0066 164.479 24.1584 163.419 24.1584C162.359 24.1584 161.5 25.0066 161.5 26.0529C161.5 27.0991 162.359 27.9473 163.419 27.9473Z" fill="white"/>
        <path d="M165.341 31.2097C164.961 31.2094 164.589 31.3204 164.273 31.5286C163.957 31.7368 163.711 32.0329 163.565 32.3794C163.42 32.7258 163.382 33.1071 163.456 33.475C163.53 33.8429 163.713 34.1808 163.981 34.4461C164.25 34.7113 164.592 34.8919 164.965 34.965C165.338 35.0381 165.724 35.0004 166.075 34.8567C166.426 34.7131 166.726 34.4699 166.937 34.1579C167.148 33.8459 167.26 33.4792 167.26 33.1041C167.259 32.6019 167.057 32.1205 166.697 31.7654C166.337 31.4103 165.85 31.2104 165.341 31.2097Z" fill="white"/>
        <path d="M162.735 16.6022C162.735 16.2272 162.622 15.8605 162.412 15.5486C162.201 15.2366 161.901 14.9934 161.55 14.8497C161.199 14.706 160.813 14.6683 160.44 14.7412C160.068 14.8142 159.725 14.9947 159.457 15.2598C159.188 15.5248 159.005 15.8626 158.931 16.2304C158.856 16.5982 158.894 16.9795 159.04 17.326C159.185 17.6725 159.431 17.9687 159.747 18.177C160.063 18.3854 160.434 18.4966 160.814 18.4966C161.323 18.4963 161.811 18.2966 162.171 17.9414C162.531 17.5863 162.734 17.1047 162.735 16.6022Z" fill="white"/>
        <path d="M146.038 26.0517C146.038 25.6767 145.926 25.3101 145.715 24.9983C145.503 24.6865 145.203 24.4435 144.852 24.3C144.501 24.1566 144.115 24.1191 143.743 24.1924C143.37 24.2657 143.028 24.4464 142.759 24.7116C142.491 24.9769 142.308 25.3148 142.234 25.6827C142.16 26.0505 142.198 26.4318 142.344 26.7782C142.489 27.1246 142.736 27.4206 143.052 27.6287C143.368 27.8368 143.739 27.9478 144.119 27.9475C144.628 27.9471 145.116 27.7472 145.476 27.3917C145.836 27.0362 146.038 26.5542 146.038 26.0517Z" fill="white"/>
        <path d="M146.68 18.4969C147.74 18.4969 148.599 17.6488 148.599 16.6025C148.599 15.5563 147.74 14.7081 146.68 14.7081C145.62 14.7081 144.761 15.5563 144.761 16.6025C144.761 17.6488 145.62 18.4969 146.68 18.4969Z" fill="white"/>
        <path d="M198.198 19.9239C197.818 19.9236 197.447 20.0345 197.131 20.2427C196.815 20.4508 196.569 20.7468 196.423 21.0932C196.277 21.4396 196.239 21.8208 196.313 22.1887C196.387 22.5565 196.57 22.8945 196.838 23.1597C197.107 23.425 197.449 23.6057 197.822 23.679C198.194 23.7522 198.58 23.7148 198.931 23.5713C199.282 23.4279 199.583 23.1849 199.794 22.8731C200.005 22.5613 200.117 22.1947 200.117 21.8197C200.117 21.3174 199.914 20.8358 199.555 20.4805C199.195 20.1251 198.707 19.925 198.198 19.9239Z" fill="white"/>
        <path d="M205.204 12.0779C204.824 12.0776 204.453 12.1886 204.137 12.3967C203.821 12.6049 203.574 12.9009 203.429 13.2473C203.283 13.5936 203.245 13.9749 203.319 14.3427C203.393 14.7106 203.576 15.0485 203.844 15.3138C204.113 15.5791 204.455 15.7598 204.828 15.833C205.2 15.9063 205.586 15.8688 205.937 15.7254C206.288 15.5819 206.588 15.3389 206.799 15.0271C207.011 14.7153 207.123 14.3488 207.123 13.9737C207.123 13.4713 206.921 12.9895 206.561 12.6341C206.201 12.2787 205.713 12.0787 205.204 12.0779Z" fill="white"/>
        <path d="M210.432 12.0779C210.053 12.0785 209.682 12.1901 209.366 12.3988C209.051 12.6074 208.805 12.9037 208.66 13.2502C208.515 13.5967 208.477 13.9778 208.552 14.3453C208.626 14.7129 208.809 15.0504 209.078 15.3153C209.347 15.5801 209.689 15.7604 210.062 15.8333C210.434 15.9063 210.82 15.8685 211.171 15.725C211.521 15.5814 211.821 15.3384 212.032 15.0267C212.243 14.715 212.356 14.3486 212.356 13.9737C212.355 13.4707 212.152 12.9885 211.791 12.633C211.431 12.2776 210.942 12.0779 210.432 12.0779Z" fill="white"/>
        <path d="M217.503 19.9239C217.124 19.9239 216.752 20.035 216.437 20.2434C216.121 20.4517 215.875 20.7478 215.729 21.0942C215.584 21.4406 215.546 21.8218 215.62 22.1895C215.694 22.5573 215.877 22.8951 216.146 23.1602C216.414 23.4254 216.756 23.6059 217.129 23.6791C217.501 23.7522 217.887 23.7147 218.238 23.5712C218.589 23.4277 218.889 23.1847 219.1 22.8729C219.311 22.5612 219.424 22.1946 219.424 21.8197C219.424 21.317 219.221 20.835 218.861 20.4795C218.501 20.1241 218.013 19.9242 217.503 19.9239Z" fill="white"/>
        <path d="M217.496 29.0968C218.556 29.0968 219.415 28.2487 219.415 27.2024C219.415 26.1562 218.556 25.308 217.496 25.308C216.436 25.308 215.577 26.1562 215.577 27.2024C215.577 28.2487 216.436 29.0968 217.496 29.0968Z" fill="white"/>
        <path d="M217.503 31.2097C217.124 31.2097 216.752 31.3209 216.436 31.5293C216.121 31.7377 215.874 32.0338 215.729 32.3803C215.584 32.7268 215.546 33.1081 215.62 33.4759C215.694 33.8437 215.877 34.1815 216.146 34.4466C216.415 34.7116 216.757 34.8921 217.13 34.9651C217.502 35.0381 217.888 35.0003 218.239 34.8566C218.59 34.7129 218.89 34.4697 219.101 34.1577C219.312 33.8458 219.424 33.4791 219.424 33.1041C219.424 32.6015 219.221 32.1197 218.861 31.7645C218.501 31.4092 218.013 31.2097 217.503 31.2097Z" fill="white"/>
        <path d="M215.053 18.9896C216.113 18.9896 216.972 18.1414 216.972 17.0952C216.972 16.0489 216.113 15.2007 215.053 15.2007C213.993 15.2007 213.134 16.0489 213.134 17.0952C213.134 18.1414 213.993 18.9896 215.053 18.9896Z" fill="white"/>
        <path d="M243.982 11.4086C243.602 11.4083 243.23 11.5193 242.914 11.7275C242.598 11.9357 242.352 12.2318 242.206 12.5783C242.061 12.9247 242.022 13.306 242.096 13.6739C242.17 14.0418 242.353 14.3797 242.622 14.645C242.891 14.9102 243.233 15.0908 243.606 15.1639C243.978 15.237 244.365 15.1993 244.716 15.0557C245.067 14.912 245.367 14.6688 245.578 14.3568C245.789 14.0448 245.901 13.6781 245.901 13.303C245.9 12.8008 245.697 12.3194 245.338 11.9643C244.978 11.6092 244.49 11.4093 243.982 11.4086Z" fill="white"/>
        <path d="M249.203 12.0779C248.823 12.0779 248.452 12.1891 248.136 12.3974C247.82 12.6057 247.574 12.9018 247.428 13.2482C247.283 13.5947 247.245 13.9758 247.319 14.3436C247.393 14.7113 247.576 15.0491 247.845 15.3143C248.113 15.5794 248.456 15.76 248.828 15.8331C249.201 15.9063 249.587 15.8687 249.938 15.7252C250.289 15.5818 250.589 15.3388 250.8 15.027C251.011 14.7152 251.123 14.3487 251.123 13.9737C251.123 13.471 250.92 12.9891 250.56 12.6336C250.2 12.2781 249.712 12.0783 249.203 12.0779Z" fill="white"/>
        <path d="M256.269 19.9239C255.889 19.9239 255.518 20.035 255.202 20.2434C254.886 20.4517 254.64 20.7478 254.495 21.0942C254.349 21.4406 254.311 21.8218 254.386 22.1895C254.46 22.5573 254.643 22.8951 254.911 23.1602C255.18 23.4254 255.522 23.6059 255.894 23.6791C256.267 23.7522 256.653 23.7147 257.004 23.5712C257.355 23.4277 257.655 23.1847 257.866 22.8729C258.077 22.5612 258.19 22.1946 258.19 21.8197C258.189 21.317 257.987 20.835 257.627 20.4795C257.267 20.1241 256.778 19.9242 256.269 19.9239Z" fill="white"/>
        <path d="M256.27 29.0963C257.33 29.0963 258.189 28.2481 258.189 27.2019C258.189 26.1556 257.33 25.3075 256.27 25.3075C255.21 25.3075 254.351 26.1556 254.351 27.2019C254.351 28.2481 255.21 29.0963 256.27 29.0963Z" fill="white"/>
        <path d="M256.269 31.2097C255.889 31.2097 255.518 31.3209 255.202 31.5293C254.886 31.7377 254.64 32.0338 254.495 32.3803C254.349 32.7268 254.311 33.1081 254.386 33.4759C254.46 33.8437 254.643 34.1815 254.912 34.4466C255.18 34.7116 255.523 34.8921 255.895 34.9651C256.268 35.0381 256.654 35.0003 257.005 34.8566C257.356 34.7129 257.656 34.4697 257.867 34.1577C258.077 33.8458 258.19 33.4791 258.19 33.1041C258.189 32.6015 257.987 32.1197 257.627 31.7645C257.266 31.4092 256.778 31.2097 256.269 31.2097Z" fill="white"/>
        <path d="M253.824 18.9896C254.884 18.9896 255.743 18.1414 255.743 17.0952C255.743 16.0489 254.884 15.2007 253.824 15.2007C252.764 15.2007 251.905 16.0489 251.905 17.0952C251.905 18.1414 252.764 18.9896 253.824 18.9896Z" fill="white"/>
        <path d="M198.198 25.3018C197.818 25.3015 197.447 25.4125 197.131 25.6206C196.815 25.8288 196.569 26.1247 196.423 26.4711C196.277 26.8175 196.239 27.1988 196.313 27.5666C196.387 27.9344 196.57 28.2724 196.838 28.5377C197.107 28.8029 197.449 28.9836 197.822 29.0569C198.194 29.1302 198.58 29.0927 198.931 28.9493C199.282 28.8058 199.583 28.5628 199.794 28.251C200.005 27.9392 200.117 27.5726 200.117 27.1976C200.117 26.6953 199.914 26.2137 199.555 25.8584C199.195 25.5031 198.707 25.3029 198.198 25.3018Z" fill="white"/>
        <path d="M198.198 31.2097C197.818 31.2094 197.447 31.3204 197.131 31.5286C196.815 31.7368 196.568 32.0329 196.423 32.3794C196.277 32.7258 196.239 33.1071 196.313 33.475C196.387 33.8429 196.57 34.1808 196.839 34.4461C197.108 34.7113 197.45 34.8919 197.823 34.965C198.195 35.0381 198.581 35.0004 198.932 34.8567C199.283 34.7131 199.583 34.4699 199.794 34.1579C200.005 33.8459 200.118 33.4792 200.117 33.1041C200.117 32.6019 199.914 32.1205 199.554 31.7654C199.195 31.4103 198.707 31.2104 198.198 31.2097Z" fill="white"/>
        <path d="M198.199 13.4446C198.579 13.4446 198.95 13.3333 199.266 13.125C199.582 12.9166 199.828 12.6204 199.973 12.2739C200.119 11.9274 200.156 11.5462 200.082 11.1784C200.008 10.8106 199.825 10.4728 199.556 10.2077C199.288 9.94262 198.945 9.76217 198.573 9.68918C198.2 9.61619 197.814 9.65393 197.463 9.79764C197.112 9.94135 196.812 10.1846 196.601 10.4965C196.39 10.8085 196.278 11.1751 196.278 11.5502C196.279 12.0527 196.481 12.5346 196.841 12.8898C197.201 13.245 197.69 13.4446 198.199 13.4446Z" fill="white"/>
        <path d="M198.199 8.89034C198.579 8.89034 198.95 8.77915 199.266 8.57083C199.582 8.36252 199.828 8.06643 199.973 7.72002C200.118 7.3736 200.156 6.99241 200.082 6.62466C200.008 6.25691 199.825 5.9191 199.557 5.65397C199.288 5.38883 198.946 5.20827 198.573 5.13512C198.201 5.06197 197.815 5.09952 197.464 5.24301C197.113 5.3865 196.813 5.62949 196.602 5.94125C196.391 6.25302 196.278 6.61956 196.278 6.99452C196.279 7.4972 196.481 7.9792 196.841 8.33465C197.201 8.69011 197.69 8.88996 198.199 8.89034Z" fill="white"/>
        <path d="M198.199 3.8243C198.579 3.8243 198.95 3.71311 199.266 3.5048C199.582 3.29648 199.828 3.00039 199.973 2.65398C200.118 2.30756 200.156 1.92637 200.082 1.55862C200.008 1.19087 199.825 0.853064 199.557 0.587928C199.288 0.322793 198.946 0.142233 198.573 0.0690823C198.201 -0.00406836 197.815 0.0334752 197.464 0.176966C197.113 0.320456 196.813 0.563448 196.602 0.875214C196.391 1.18698 196.278 1.55352 196.278 1.92848C196.279 2.43117 196.481 2.91316 196.841 3.26861C197.201 3.62407 197.69 3.82392 198.199 3.8243Z" fill="white"/>
        <path d="M200.59 15.1992C200.21 15.1989 199.839 15.3099 199.523 15.518C199.207 15.7262 198.96 16.0221 198.815 16.3685C198.669 16.7149 198.631 17.0962 198.705 17.464C198.779 17.8318 198.961 18.1698 199.23 18.4351C199.498 18.7003 199.841 18.881 200.213 18.9543C200.586 19.0276 200.972 18.9901 201.323 18.8467C201.674 18.7032 201.974 18.4602 202.185 18.1484C202.396 17.8366 202.509 17.47 202.509 17.095C202.509 16.5926 202.306 16.1108 201.946 15.7554C201.587 15.4 201.099 15.1999 200.59 15.1992Z" fill="white"/>
        <path d="M173.228 22.8939C173.608 22.8953 173.98 22.7853 174.297 22.5778C174.613 22.3703 174.861 22.0747 175.007 21.7284C175.154 21.3822 175.193 21.0008 175.119 20.6325C175.046 20.2643 174.864 19.9259 174.595 19.66C174.327 19.3942 173.985 19.2129 173.612 19.1392C173.24 19.0655 172.853 19.1026 172.502 19.2459C172.15 19.3891 171.85 19.6321 171.639 19.9441C171.427 20.256 171.314 20.6228 171.314 20.998C171.315 21.4995 171.516 21.9804 171.875 22.3357C172.233 22.6909 172.72 22.8916 173.228 22.8939Z" fill="white"/>
        <path d="M175.787 28.6054C175.407 28.6057 175.036 28.717 174.721 28.9254C174.406 29.1337 174.16 29.4297 174.015 29.7758C173.87 30.122 173.832 30.5029 173.906 30.8703C173.98 31.2376 174.163 31.5751 174.432 31.8399C174.7 32.1047 175.042 32.2849 175.414 32.3579C175.787 32.4309 176.172 32.3933 176.523 32.2499C176.873 32.1065 177.173 31.8636 177.384 31.5521C177.595 31.2406 177.707 30.8744 177.707 30.4998C177.707 29.9973 177.504 29.5154 177.144 29.1602C176.784 28.805 176.296 28.6054 175.787 28.6054Z" fill="white"/>
        <path d="M180.24 31.2097C179.86 31.2094 179.489 31.3204 179.173 31.5286C178.857 31.7368 178.61 32.0329 178.465 32.3794C178.319 32.7258 178.281 33.1071 178.355 33.475C178.429 33.8429 178.612 34.1808 178.881 34.4461C179.15 34.7113 179.492 34.8919 179.865 34.965C180.237 35.0381 180.623 35.0004 180.974 34.8567C181.325 34.7131 181.625 34.4699 181.836 34.1579C182.047 33.8459 182.16 33.4792 182.159 33.1041C182.159 32.6019 181.956 32.1205 181.596 31.7654C181.237 31.4103 180.749 31.2104 180.24 31.2097Z" fill="white"/>
        <path d="M180.24 12.0779C179.86 12.0776 179.489 12.1886 179.173 12.3967C178.857 12.6049 178.611 12.9009 178.465 13.2473C178.319 13.5936 178.281 13.9749 178.355 14.3427C178.429 14.7106 178.612 15.0485 178.88 15.3138C179.149 15.5791 179.491 15.7598 179.864 15.833C180.236 15.9063 180.622 15.8688 180.973 15.7254C181.324 15.5819 181.624 15.3389 181.836 15.0271C182.047 14.7153 182.159 14.3488 182.159 13.9737C182.159 13.4714 181.956 12.9898 181.596 12.6345C181.237 12.2792 180.749 12.079 180.24 12.0779Z" fill="white"/>
        <path d="M185.471 12.0779C185.091 12.0776 184.719 12.1886 184.403 12.3967C184.087 12.6049 183.841 12.9009 183.695 13.2473C183.55 13.5936 183.512 13.9749 183.586 14.3427C183.659 14.7106 183.842 15.0485 184.111 15.3138C184.379 15.5791 184.722 15.7598 185.094 15.833C185.467 15.9063 185.853 15.8688 186.204 15.7254C186.555 15.5819 186.855 15.3389 187.066 15.0271C187.277 14.7153 187.39 14.3488 187.39 13.9737C187.389 13.4714 187.187 12.9898 186.827 12.6345C186.467 12.2792 185.98 12.079 185.471 12.0779Z" fill="white"/>
        <path d="M185.471 31.2097C185.091 31.2094 184.719 31.3204 184.403 31.5286C184.087 31.7368 183.841 32.0329 183.695 32.3794C183.55 32.7258 183.512 33.1071 183.586 33.475C183.66 33.8429 183.843 34.1808 184.111 34.4461C184.38 34.7113 184.722 34.8919 185.095 34.965C185.468 35.0381 185.854 35.0004 186.205 34.8567C186.556 34.7131 186.856 34.4699 187.067 34.1579C187.278 33.8459 187.39 33.4792 187.39 33.1041C187.389 32.6019 187.187 32.1205 186.827 31.7654C186.467 31.4103 185.979 31.2104 185.471 31.2097Z" fill="white"/>
        <path d="M189.917 14.7065C189.537 14.7065 189.165 14.8177 188.85 15.026C188.534 15.2344 188.288 15.5304 188.142 15.8769C187.997 16.2233 187.959 16.6045 188.033 16.9722C188.107 17.34 188.29 17.6778 188.559 17.9429C188.827 18.2081 189.169 18.3886 189.542 18.4618C189.914 18.5349 190.301 18.4974 190.652 18.3539C191.002 18.2104 191.302 17.9674 191.513 17.6556C191.724 17.3439 191.837 16.9773 191.837 16.6024C191.837 16.0997 191.634 15.6177 191.274 15.2622C190.914 14.9068 190.426 14.7069 189.917 14.7065Z" fill="white"/>
        <path d="M173.228 27.9473C174.288 27.9473 175.147 27.0991 175.147 26.0529C175.147 25.0066 174.288 24.1584 173.228 24.1584C172.168 24.1584 171.309 25.0066 171.309 26.0529C171.309 27.0991 172.168 27.9473 173.228 27.9473Z" fill="white"/>
        <path d="M175.786 14.7065C175.406 14.7065 175.035 14.8177 174.719 15.026C174.403 15.2344 174.157 15.5304 174.011 15.8769C173.866 16.2233 173.828 16.6045 173.902 16.9722C173.976 17.34 174.159 17.6778 174.428 17.9429C174.696 18.2081 175.039 18.3886 175.411 18.4618C175.784 18.5349 176.17 18.4974 176.521 18.3539C176.872 18.2104 177.172 17.9674 177.383 17.6556C177.594 17.3439 177.706 16.9773 177.706 16.6024C177.706 16.0997 177.503 15.6177 177.143 15.2622C176.783 14.9068 176.295 14.7069 175.786 14.7065Z" fill="white"/>
        <path d="M21.2227 19.1038C20.8427 19.1035 20.4712 19.2145 20.1552 19.4227C19.8392 19.6309 19.5928 19.927 19.4472 20.2735C19.3017 20.6199 19.2636 21.0012 19.3376 21.3691C19.4117 21.737 19.5946 22.0749 19.8633 22.3402C20.132 22.6054 20.4743 22.786 20.847 22.8591C21.2196 22.9322 21.6059 22.8945 21.9569 22.7509C22.3079 22.6072 22.6078 22.364 22.8187 22.052C23.0296 21.74 23.142 21.3733 23.1418 20.9982C23.141 20.496 22.9386 20.0146 22.5788 19.6595C22.2191 19.3044 21.7314 19.1045 21.2227 19.1038Z" fill="white"/>
        <path d="M20.5285 16.6022C20.5288 16.2271 20.4163 15.8604 20.2054 15.5484C19.9945 15.2364 19.6946 14.9932 19.3436 14.8496C18.9926 14.7059 18.6063 14.6682 18.2337 14.7413C17.861 14.8145 17.5187 14.995 17.25 15.2603C16.9813 15.5255 16.7984 15.8634 16.7243 16.2313C16.6503 16.5992 16.6884 16.9805 16.834 17.327C16.9795 17.6734 17.2259 17.9695 17.5419 18.1777C17.858 18.3859 18.2295 18.4969 18.6094 18.4966C19.1182 18.4959 19.6058 18.2961 19.9656 17.9409C20.3253 17.5858 20.5277 17.1044 20.5285 16.6022Z" fill="white"/>
        <path d="M21.2227 9.55136C20.8428 9.55108 20.4714 9.66203 20.1553 9.87018C19.8393 10.0783 19.593 10.3743 19.4474 10.7207C19.3018 11.0671 19.2636 11.4483 19.3375 11.8162C19.4115 12.184 19.5942 12.522 19.8628 12.7872C20.1313 13.0525 20.4735 13.2332 20.8461 13.3065C21.2187 13.3797 21.6049 13.3423 21.9559 13.1988C22.3069 13.0554 22.6069 12.8124 22.818 12.5006C23.0291 12.1888 23.1418 11.8222 23.1418 11.4472C23.141 10.9449 22.9386 10.4633 22.5789 10.108C22.2192 9.75262 21.7316 9.55248 21.2227 9.55136Z" fill="white"/>
        <path d="M21.2227 5.15515C20.8427 5.15487 20.4712 5.26586 20.1552 5.47407C19.8392 5.68228 19.5928 5.97835 19.4472 6.32482C19.3017 6.6713 19.2636 7.0526 19.3376 7.42048C19.4117 7.78837 19.5946 8.1263 19.8633 8.39152C20.132 8.65674 20.4743 8.83733 20.847 8.91044C21.2196 8.98354 21.6059 8.94588 21.9569 8.80221C22.3079 8.65855 22.6078 8.41534 22.8187 8.10336C23.0296 7.79137 23.142 7.42464 23.1418 7.04956C23.141 6.54736 22.9386 6.06595 22.5788 5.71084C22.2191 5.35573 21.7314 5.1559 21.2227 5.15515Z" fill="white"/>
        <path d="M21.2227 5.25403e-07C20.8427 -0.000278655 20.4712 0.110708 20.1552 0.318916C19.8392 0.527124 19.5928 0.823197 19.4472 1.16967C19.3017 1.51614 19.2636 1.89745 19.3376 2.26533C19.4117 2.63322 19.5946 2.97115 19.8633 3.23637C20.132 3.50159 20.4743 3.68218 20.847 3.75529C21.2196 3.82839 21.6059 3.79073 21.9569 3.64706C22.3079 3.5034 22.6078 3.26019 22.8187 2.9482C23.0296 2.63622 23.142 2.26949 23.1418 1.89441C23.141 1.39221 22.9386 0.910795 22.5788 0.555685C22.2191 0.200576 21.7314 0.000747292 21.2227 5.25403e-07Z" fill="white"/>
    </g>
    <defs>
        <clipPath id="clip0_2680_4500">
            <rect width="286" height="35" fill="white"/>
        </clipPath>
    </defs>
</svg>
