<?xml version="1.0" encoding="utf-8"?>
<!-- Generator: Adobe Illustrator 25.4.1, SVG Export Plug-In . SVG Version: 6.00 Build 0)  -->
<svg version="1.1" id="Layer_1" xmlns="http://www.w3.org/2000/svg" xmlns:xlink="http://www.w3.org/1999/xlink" x="0px" y="0px"
	 viewBox="0 0 2000 247.7" style="enable-background:new 0 0 2000 247.7; fill: #fff" xml:space="preserve">
<path d="M99,85.3c-7.4,0-13.4,6-13.4,13.4c0,7.4,6,13.4,13.4,13.4s13.4-6,13.4-13.4C112.4,91.3,106.4,85.3,99,85.3z"/>
<path d="M62.5,85.3c-7.4,0-13.4,6-13.4,13.4c0,7.4,6,13.4,13.4,13.4s13.4-6,13.4-13.4C75.9,91.3,69.9,85.3,62.5,85.3z"/>
<path d="M32,103.9c-7.4,0-13.4,6-13.4,13.4c0,7.4,6,13.4,13.4,13.4c7.4,0,13.4-6,13.4-13.4C45.5,110,39.4,103.9,32,103.9z"/>
<path d="M13.4,161.9c7.4,0,13.4-6,13.4-13.4s-6-13.4-13.4-13.4c-7.4,0-13.4,6-13.4,13.4S6,161.9,13.4,161.9z"/>
<path d="M26.8,184.3c0-7.4-6-13.4-13.4-13.4c-7.4,0-13.4,6-13.4,13.4c0,7.4,6,13.4,13.4,13.4C20.8,197.7,26.8,191.7,26.8,184.3z"/>
<path d="M32,202.4c-7.4,0-13.4,6-13.4,13.4c0,7.4,6,13.4,13.4,13.4c7.4,0,13.4-6,13.4-13.4C45.5,208.4,39.4,202.4,32,202.4z"/>
<path d="M62.5,220.8c-7.4,0-13.4,6-13.4,13.4s6,13.4,13.4,13.4s13.4-6,13.4-13.4S69.9,220.8,62.5,220.8z"/>
<path d="M99,220.8c-7.4,0-13.4,6-13.4,13.4s6,13.4,13.4,13.4s13.4-6,13.4-13.4S106.4,220.8,99,220.8z"/>
<path d="M148.4,170.9c-7.4,0-13.4,6-13.4,13.4c0,7.4,6,13.4,13.4,13.4c7.4,0,13.4-6,13.4-13.4C161.8,176.9,155.8,170.9,148.4,170.9z
	"/>
<path d="M130.1,202.4c-7.4,0-13.4,6-13.4,13.4s6,13.4,13.4,13.4c7.4,0,13.4-6,13.4-13.4S137.5,202.4,130.1,202.4z"/>
<path d="M215.9,220.8c-7.4,0-13.4,6-13.4,13.4s6,13.4,13.4,13.4c7.4,0,13.4-6,13.4-13.4S223.3,220.8,215.9,220.8z"/>
<path d="M215.9,180.6c-7.4,0-13.4,6-13.4,13.4s6,13.4,13.4,13.4c7.4,0,13.4-6,13.4-13.4S223.3,180.6,215.9,180.6z"/>
<path d="M215.9,144.1c-7.4,0-13.4,6-13.4,13.4c0,7.4,6,13.4,13.4,13.4c7.4,0,13.4-6,13.4-13.4C229.3,150.2,223.3,144.1,215.9,144.1z
	"/>
<circle cx="232.6" cy="123.2" r="13.4"/>
<path d="M264,88.8c-7.4,0-13.4,6-13.4,13.4c0,7.4,6,13.4,13.4,13.4c7.4,0,13.4-6,13.4-13.4C277.4,94.9,271.4,88.8,264,88.8z"/>
<path d="M301.8,85.3c-7.4,0-13.4,6-13.4,13.4c0,7.4,6,13.4,13.4,13.4s13.4-6,13.4-13.4C315.2,91.3,309.2,85.3,301.8,85.3z"/>
<g>
	<path d="M1851.6,161.9c7.4,0,13.4-6,13.4-13.4s-6-13.4-13.4-13.4c-7.4,0-13.4,6-13.4,13.4S1844.2,161.9,1851.6,161.9z"/>
	<circle cx="1869.5" cy="215.8" r="13.4"/>
	<path d="M1900.7,220.8c-7.4,0-13.4,6-13.4,13.4s6,13.4,13.4,13.4c7.4,0,13.4-6,13.4-13.4S1908.1,220.8,1900.7,220.8z"/>
	<path d="M1909.1,84.2c-7.4,0-13.4,6-13.4,13.4c0,7.4,6,13.4,13.4,13.4c7.4,0,13.4-6,13.4-13.4C1922.6,90.2,1916.5,84.2,1909.1,84.2
		z"/>
	<path d="M1947.6,90.2c-7.4,0-13.4,6-13.4,13.4c0,7.4,6,13.4,13.4,13.4c7.4,0,13.4-6,13.4-13.4C1961,96.2,1955,90.2,1947.6,90.2z"/>
	<path d="M1937.2,220.8c-7.4,0-13.4,6-13.4,13.4s6,13.4,13.4,13.4c7.4,0,13.4-6,13.4-13.4S1944.6,220.8,1937.2,220.8z"/>
	<path d="M1989,130.8c0-7.4-6-13.4-13.4-13.4c-7.4,0-13.4,6-13.4,13.4c0,7.4,6,13.4,13.4,13.4C1983,144.2,1989,138.2,1989,130.8z"/>
	<path d="M1945.9,153.1c-7.4,0-13.4,6-13.4,13.4s6,13.4,13.4,13.4c7.4,0,13.4-6,13.4-13.4S1953.3,153.1,1945.9,153.1z"/>
	<path d="M1986.6,153.1c-7.4,0-13.4,6-13.4,13.4s6,13.4,13.4,13.4c7.4,0,13.4-6,13.4-13.4S1994,153.1,1986.6,153.1z"/>
	<path d="M1905.1,153.1c-7.4,0-13.4,6-13.4,13.4s6,13.4,13.4,13.4c7.4,0,13.4-6,13.4-13.4S1912.5,153.1,1905.1,153.1z"/>
	<path d="M1865,184.3c0-7.4-6-13.4-13.4-13.4c-7.4,0-13.4,6-13.4,13.4c0,7.4,6,13.4,13.4,13.4C1859,197.7,1865,191.7,1865,184.3z"/>
	<circle cx="1873" cy="116.2" r="13.4"/>
</g>
<g>
	<path d="M344.7,161.9c7.4,0,13.4-6,13.4-13.4s-6-13.4-13.4-13.4c-7.4,0-13.4,6-13.4,13.4S337.3,161.9,344.7,161.9z"/>
	<circle cx="362.6" cy="215.8" r="13.4"/>
	<path d="M393.8,220.8c-7.4,0-13.4,6-13.4,13.4s6,13.4,13.4,13.4c7.4,0,13.4-6,13.4-13.4S401.2,220.8,393.8,220.8z"/>
	<path d="M402.2,84.2c-7.4,0-13.4,6-13.4,13.4c0,7.4,6,13.4,13.4,13.4c7.4,0,13.4-6,13.4-13.4C415.7,90.2,409.6,84.2,402.2,84.2z"/>
	<path d="M440.7,90.2c-7.4,0-13.4,6-13.4,13.4c0,7.4,6,13.4,13.4,13.4c7.4,0,13.4-6,13.4-13.4C454.1,96.2,448.1,90.2,440.7,90.2z"/>
	<path d="M430.3,220.8c-7.4,0-13.4,6-13.4,13.4s6,13.4,13.4,13.4c7.4,0,13.4-6,13.4-13.4S437.7,220.8,430.3,220.8z"/>
	<path d="M482.1,130.8c0-7.4-6-13.4-13.4-13.4c-7.4,0-13.4,6-13.4,13.4c0,7.4,6,13.4,13.4,13.4C476.1,144.2,482.1,138.2,482.1,130.8
		z"/>
	<path d="M439,153.1c-7.4,0-13.4,6-13.4,13.4s6,13.4,13.4,13.4c7.4,0,13.4-6,13.4-13.4S446.4,153.1,439,153.1z"/>
	<path d="M479.7,153.1c-7.4,0-13.4,6-13.4,13.4s6,13.4,13.4,13.4c7.4,0,13.4-6,13.4-13.4S487.1,153.1,479.7,153.1z"/>
	<path d="M398.2,153.1c-7.4,0-13.4,6-13.4,13.4s6,13.4,13.4,13.4c7.4,0,13.4-6,13.4-13.4S405.6,153.1,398.2,153.1z"/>
	<path d="M358.1,184.3c0-7.4-6-13.4-13.4-13.4c-7.4,0-13.4,6-13.4,13.4c0,7.4,6,13.4,13.4,13.4C352.1,197.7,358.1,191.7,358.1,184.3
		z"/>
	<circle cx="366.1" cy="116.2" r="13.4"/>
</g>
<path d="M535.1,161.9c7.4,0,13.4-6,13.4-13.4s-6-13.4-13.4-13.4c-7.4,0-13.4,6-13.4,13.4S527.7,161.9,535.1,161.9z"/>
<circle cx="553" cy="215.8" r="13.4"/>
<circle cx="651.8" cy="215.8" r="13.4"/>
<path d="M584.1,220.8c-7.4,0-13.4,6-13.4,13.4s6,13.4,13.4,13.4c7.4,0,13.4-6,13.4-13.4S591.5,220.8,584.1,220.8z"/>
<path d="M584.1,85.3c-7.4,0-13.4,6-13.4,13.4c0,7.4,6,13.4,13.4,13.4c7.4,0,13.4-6,13.4-13.4C597.5,91.3,591.5,85.3,584.1,85.3z"/>
<path d="M620.6,85.3c-7.4,0-13.4,6-13.4,13.4c0,7.4,6,13.4,13.4,13.4c7.4,0,13.4-6,13.4-13.4C634,91.3,628,85.3,620.6,85.3z"/>
<path d="M620.6,220.8c-7.4,0-13.4,6-13.4,13.4s6,13.4,13.4,13.4c7.4,0,13.4-6,13.4-13.4S628,220.8,620.6,220.8z"/>
<path d="M670,135.1c-7.4,0-13.4,6-13.4,13.4s6,13.4,13.4,13.4s13.4-6,13.4-13.4S677.4,135.1,670,135.1z"/>
<circle cx="670" cy="184.3" r="13.4"/>
<path d="M683.5,220.8c-7.4,0-13.4,6-13.4,13.4s6,13.4,13.4,13.4s13.4-6,13.4-13.4S690.9,220.8,683.5,220.8z"/>
<path d="M665.2,117.4c0-7.4-6-13.4-13.4-13.4c-7.4,0-13.4,6-13.4,13.4c0,7.4,6,13.4,13.4,13.4C659.2,130.8,665.2,124.8,665.2,117.4z
	"/>
<path d="M902,88.1c-7.4,0-13.4,6-13.4,13.4c0,7.4,6,13.4,13.4,13.4c7.4,0,13.4-6,13.4-13.4C915.4,94.1,909.4,88.1,902,88.1z"/>
<path d="M945.5,146.9c-7.4,0-13.4,6-13.4,13.4s6,13.4,13.4,13.4c7.4,0,13.4-6,13.4-13.4S952.9,146.9,945.5,146.9z"/>
<path d="M945.5,182.7c-7.4,0-13.4,6-13.4,13.4c0,7.4,6,13.4,13.4,13.4c7.4,0,13.4-6,13.4-13.4C958.9,188.7,952.9,182.7,945.5,182.7z
	"/>
<path d="M946.5,124.5c0-7.4-6-13.4-13.4-13.4c-7.4,0-13.4,6-13.4,13.4c0,7.4,6,13.4,13.4,13.4C940.5,137.9,946.5,131.9,946.5,124.5z
	"/>
<path d="M796.3,88.1c-7.4,0-13.4,6-13.4,13.4c0,7.4,6,13.4,13.4,13.4s13.4-6,13.4-13.4C809.7,94.1,803.7,88.1,796.3,88.1z"/>
<path d="M861,85.3c-7.4,0-13.4,6-13.4,13.4c0,7.4,6,13.4,13.4,13.4c7.4,0,13.4-6,13.4-13.4C874.4,91.3,868.4,85.3,861,85.3z"/>
<path d="M752.9,85.3c-7.4,0-13.4,6-13.4,13.4c0,7.4,6,13.4,13.4,13.4s13.4-6,13.4-13.4C766.3,91.3,760.3,85.3,752.9,85.3z"/>
<path d="M752.9,119.2c-7.4,0-13.4,6-13.4,13.4c0,7.4,6,13.4,13.4,13.4s13.4-6,13.4-13.4C766.3,125.2,760.3,119.2,752.9,119.2z"/>
<circle cx="752.9" cy="166.5" r="13.4"/>
<circle cx="752.9" cy="200.4" r="13.4"/>
<path d="M752.9,220.8c-7.4,0-13.4,6-13.4,13.4s6,13.4,13.4,13.4s13.4-6,13.4-13.4S760.3,220.8,752.9,220.8z"/>
<path d="M847.4,146.9c-7.4,0-13.4,6-13.4,13.4s6,13.4,13.4,13.4c7.4,0,13.4-6,13.4-13.4S854.8,146.9,847.4,146.9z"/>
<path d="M847.4,182.7c-7.4,0-13.4,6-13.4,13.4c0,7.4,6,13.4,13.4,13.4c7.4,0,13.4-6,13.4-13.4C860.8,188.7,854.8,182.7,847.4,182.7z
	"/>
<path d="M847.4,220.8c-7.4,0-13.4,6-13.4,13.4s6,13.4,13.4,13.4c7.4,0,13.4-6,13.4-13.4S854.8,220.8,847.4,220.8z"/>
<path d="M945.5,220.8c-7.4,0-13.4,6-13.4,13.4s6,13.4,13.4,13.4c7.4,0,13.4-6,13.4-13.4S952.9,220.8,945.5,220.8z"/>
<path d="M847.3,124.5c0-7.4-6-13.4-13.4-13.4c-7.4,0-13.4,6-13.4,13.4c0,7.4,6,13.4,13.4,13.4C841.2,137.9,847.3,131.9,847.3,124.5z
	"/>
<path d="M1665.5,85.3c-7.4,0-13.4,6-13.4,13.4c0,7.4,6,13.4,13.4,13.4c7.4,0,13.4-6,13.4-13.4C1678.9,91.3,1672.9,85.3,1665.5,85.3z
	"/>
<path d="M1665.5,130.5c-7.4,0-13.4,6-13.4,13.4c0,7.4,6,13.4,13.4,13.4c7.4,0,13.4-6,13.4-13.4
	C1678.9,136.5,1672.9,130.5,1665.5,130.5z"/>
<path d="M1665.5,175.7c-7.4,0-13.4,6-13.4,13.4c0,7.4,6,13.4,13.4,13.4c7.4,0,13.4-6,13.4-13.4
	C1678.9,181.7,1672.9,175.7,1665.5,175.7z"/>
<path d="M1665.5,220.8c-7.4,0-13.4,6-13.4,13.4s6,13.4,13.4,13.4c7.4,0,13.4-6,13.4-13.4S1672.9,220.8,1665.5,220.8z"/>
<path d="M1593.6,85.3c-7.4,0-13.4,6-13.4,13.4c0,7.4,6,13.4,13.4,13.4c7.4,0,13.4-6,13.4-13.4C1607,91.3,1601,85.3,1593.6,85.3z"/>
<path d="M1593.6,0c-7.4,0-13.4,6-13.4,13.4s6,13.4,13.4,13.4c7.4,0,13.4-6,13.4-13.4S1601,0,1593.6,0z"/>
<path d="M1593.6,130.5c-7.4,0-13.4,6-13.4,13.4c0,7.4,6,13.4,13.4,13.4c7.4,0,13.4-6,13.4-13.4C1607,136.5,1601,130.5,1593.6,130.5z
	"/>
<path d="M1593.6,175.7c-7.4,0-13.4,6-13.4,13.4c0,7.4,6,13.4,13.4,13.4c7.4,0,13.4-6,13.4-13.4C1607,181.7,1601,175.7,1593.6,175.7z
	"/>
<path d="M1593.6,220.8c-7.4,0-13.4,6-13.4,13.4s6,13.4,13.4,13.4c7.4,0,13.4-6,13.4-13.4S1601,220.8,1593.6,220.8z"/>
<path d="M548.5,184.3c0-7.4-6-13.4-13.4-13.4c-7.4,0-13.4,6-13.4,13.4c0,7.4,6,13.4,13.4,13.4C542.5,197.7,548.5,191.7,548.5,184.3z
	"/>
<circle cx="553" cy="117.4" r="13.4"/>
<path d="M1007.8,161.9c7.4,0,13.4-6,13.4-13.4s-6-13.4-13.4-13.4c-7.4,0-13.4,6-13.4,13.4S1000.4,161.9,1007.8,161.9z"/>
<circle cx="1025.7" cy="215.8" r="13.4"/>
<circle cx="1124.5" cy="215.8" r="13.4"/>
<path d="M1056.9,220.8c-7.4,0-13.4,6-13.4,13.4s6,13.4,13.4,13.4c7.4,0,13.4-6,13.4-13.4S1064.3,220.8,1056.9,220.8z"/>
<path d="M1056.9,85.3c-7.4,0-13.4,6-13.4,13.4c0,7.4,6,13.4,13.4,13.4c7.4,0,13.4-6,13.4-13.4C1070.3,91.3,1064.3,85.3,1056.9,85.3z
	"/>
<path d="M1093.4,85.3c-7.4,0-13.4,6-13.4,13.4c0,7.4,6,13.4,13.4,13.4c7.4,0,13.4-6,13.4-13.4C1106.8,91.3,1100.8,85.3,1093.4,85.3z
	"/>
<path d="M1093.4,220.8c-7.4,0-13.4,6-13.4,13.4s6,13.4,13.4,13.4c7.4,0,13.4-6,13.4-13.4S1100.8,220.8,1093.4,220.8z"/>
<path d="M1142.8,135.1c-7.4,0-13.4,6-13.4,13.4s6,13.4,13.4,13.4c7.4,0,13.4-6,13.4-13.4S1150.2,135.1,1142.8,135.1z"/>
<circle cx="1142.8" cy="184.3" r="13.4"/>
<path d="M1156.2,220.8c-7.4,0-13.4,6-13.4,13.4s6,13.4,13.4,13.4c7.4,0,13.4-6,13.4-13.4S1163.6,220.8,1156.2,220.8z"/>
<path d="M1138,117.4c0-7.4-6-13.4-13.4-13.4c-7.4,0-13.4,6-13.4,13.4c0,7.4,6,13.4,13.4,13.4C1131.9,130.8,1138,124.8,1138,117.4z"
	/>
<path d="M1021.3,184.3c0-7.4-6-13.4-13.4-13.4c-7.4,0-13.4,6-13.4,13.4c0,7.4,6,13.4,13.4,13.4
	C1015.2,197.7,1021.3,191.7,1021.3,184.3z"/>
<circle cx="1025.7" cy="117.4" r="13.4"/>
<path d="M1386,140.9c-7.4,0-13.4,6-13.4,13.4c0,7.4,6,13.4,13.4,13.4c7.4,0,13.4-6,13.4-13.4C1399.4,146.9,1393.4,140.9,1386,140.9z
	"/>
<path d="M1435,85.3c-7.4,0-13.4,6-13.4,13.4c0,7.4,6,13.4,13.4,13.4c7.4,0,13.4-6,13.4-13.4C1448.5,91.3,1442.4,85.3,1435,85.3z"/>
<path d="M1471.5,85.3c-7.4,0-13.4,6-13.4,13.4c0,7.4,6,13.4,13.4,13.4c7.4,0,13.4-6,13.4-13.4C1485,91.3,1479,85.3,1471.5,85.3z"/>
<path d="M1521,140.9c-7.4,0-13.4,6-13.4,13.4c0,7.4,6,13.4,13.4,13.4c7.4,0,13.4-6,13.4-13.4C1534.4,146.9,1528.4,140.9,1521,140.9z
	"/>
<circle cx="1521" cy="192.5" r="13.4"/>
<path d="M1521,220.8c-7.4,0-13.4,6-13.4,13.4s6,13.4,13.4,13.4c7.4,0,13.4-6,13.4-13.4S1528.4,220.8,1521,220.8z"/>
<circle cx="1503.9" cy="120.9" r="13.4"/>
<path d="M1706.2,80.6c-7.4,0-13.4,6-13.4,13.4c0,7.4,6,13.4,13.4,13.4c7.4,0,13.4-6,13.4-13.4C1719.6,86.6,1713.6,80.6,1706.2,80.6z
	"/>
<path d="M1742.7,85.3c-7.4,0-13.4,6-13.4,13.4c0,7.4,6,13.4,13.4,13.4c7.4,0,13.4-6,13.4-13.4C1756.1,91.3,1750.1,85.3,1742.7,85.3z
	"/>
<path d="M1792.1,140.9c-7.4,0-13.4,6-13.4,13.4c0,7.4,6,13.4,13.4,13.4c7.4,0,13.4-6,13.4-13.4
	C1805.5,146.9,1799.5,140.9,1792.1,140.9z"/>
<circle cx="1792.1" cy="192.5" r="13.4"/>
<path d="M1792.1,220.8c-7.4,0-13.4,6-13.4,13.4s6,13.4,13.4,13.4c7.4,0,13.4-6,13.4-13.4S1799.5,220.8,1792.1,220.8z"/>
<circle cx="1775" cy="120.9" r="13.4"/>
<path d="M1386,179c-7.4,0-13.4,6-13.4,13.4s6,13.4,13.4,13.4c7.4,0,13.4-6,13.4-13.4S1393.4,179,1386,179z"/>
<path d="M1386,220.8c-7.4,0-13.4,6-13.4,13.4s6,13.4,13.4,13.4c7.4,0,13.4-6,13.4-13.4S1393.4,220.8,1386,220.8z"/>
<path d="M1386,95c7.4,0,13.4-6,13.4-13.4c0-7.4-6-13.4-13.4-13.4c-7.4,0-13.4,6-13.4,13.4C1372.6,88.9,1378.6,95,1386,95z"/>
<path d="M1386,62.7c7.4,0,13.4-6,13.4-13.4s-6-13.4-13.4-13.4c-7.4,0-13.4,6-13.4,13.4S1378.6,62.7,1386,62.7z"/>
<path d="M1386,26.8c7.4,0,13.4-6,13.4-13.4S1393.4,0,1386,0c-7.4,0-13.4,6-13.4,13.4S1378.6,26.8,1386,26.8z"/>
<path d="M1402.7,107.4c-7.4,0-13.4,6-13.4,13.4c0,7.4,6,13.4,13.4,13.4c7.4,0,13.4-6,13.4-13.4
	C1416.1,113.5,1410.1,107.4,1402.7,107.4z"/>
<path d="M1211.4,161.9c7.4,0,13.4-6,13.4-13.4s-6-13.4-13.4-13.4c-7.4,0-13.4,6-13.4,13.4S1204,161.9,1211.4,161.9z"/>
<path d="M1229.3,202.4c-7.4,0-13.4,6-13.4,13.4c0,7.4,6,13.4,13.4,13.4c7.4,0,13.4-6,13.4-13.4
	C1242.7,208.4,1236.7,202.4,1229.3,202.4z"/>
<path d="M1260.4,220.8c-7.4,0-13.4,6-13.4,13.4s6,13.4,13.4,13.4c7.4,0,13.4-6,13.4-13.4S1267.8,220.8,1260.4,220.8z"/>
<path d="M1260.4,85.3c-7.4,0-13.4,6-13.4,13.4c0,7.4,6,13.4,13.4,13.4c7.4,0,13.4-6,13.4-13.4C1273.9,91.3,1267.8,85.3,1260.4,85.3z
	"/>
<path d="M1296.9,85.3c-7.4,0-13.4,6-13.4,13.4c0,7.4,6,13.4,13.4,13.4c7.4,0,13.4-6,13.4-13.4C1310.4,91.3,1304.3,85.3,1296.9,85.3z
	"/>
<path d="M1296.9,220.8c-7.4,0-13.4,6-13.4,13.4s6,13.4,13.4,13.4c7.4,0,13.4-6,13.4-13.4S1304.3,220.8,1296.9,220.8z"/>
<path d="M1328.1,103.9c-7.4,0-13.4,6-13.4,13.4c0,7.4,6,13.4,13.4,13.4c7.4,0,13.4-6,13.4-13.4
	C1341.5,110,1335.5,103.9,1328.1,103.9z"/>
<circle cx="1211.4" cy="184.3" r="13.4"/>
<path d="M1229.3,103.9c-7.4,0-13.4,6-13.4,13.4c0,7.4,6,13.4,13.4,13.4c7.4,0,13.4-6,13.4-13.4
	C1242.7,110,1236.7,103.9,1229.3,103.9z"/>
<path d="M148.4,135.1c-7.4,0-13.4,6-13.4,13.4s6,13.4,13.4,13.4c7.4,0,13.4-6,13.4-13.4S155.8,135.1,148.4,135.1z"/>
<path d="M143.6,117.4c0-7.4-6-13.4-13.4-13.4c-7.4,0-13.4,6-13.4,13.4c0,7.4,6,13.4,13.4,13.4C137.5,130.8,143.6,124.8,143.6,117.4z
	"/>
<path d="M148.4,67.4c-7.4,0-13.4,6-13.4,13.4c0,7.4,6,13.4,13.4,13.4c7.4,0,13.4-6,13.4-13.4C161.8,73.4,155.8,67.4,148.4,67.4z"/>
<path d="M148.4,36.3c-7.4,0-13.4,6-13.4,13.4s6,13.4,13.4,13.4c7.4,0,13.4-6,13.4-13.4S155.8,36.3,148.4,36.3z"/>
<path d="M148.4-0.2c-7.4,0-13.4,6-13.4,13.4s6,13.4,13.4,13.4c7.4,0,13.4-6,13.4-13.4S155.8-0.2,148.4-0.2z"/>
</svg>
