<?xml version="1.0" encoding="utf-8"?>
<!-- Generator: Adobe Illustrator 26.3.1, SVG Export Plug-In . SVG Version: 6.00 Build 0)  -->
<svg version="1.1" id="Layer_1" xmlns="http://www.w3.org/2000/svg" xmlns:xlink="http://www.w3.org/1999/xlink" x="0px" y="0px"
	 viewBox="0 0 1366 768" style="enable-background:new 0 0 1366 768;" xml:space="preserve">
<style type="text/css">
	.st0{fill:#FFFFFF;}
</style>
<g>
	<g>
		<g>
			<path class="st0" d="M554.5,194.4l-5.9-25c-3.1-11.1-5.7-15-39.8-15.5h-0.5v136.8c0,2.3,1.8,3.4,9,4.1l15.5,1.3l0.8,9h-75.1
				l0.8-9l15.5-1.3c6.7-0.8,9-2.3,9-4.6V153.9h-0.5c-32.3,0-37.4,1.5-40.8,12.9l-7.2,27.6h-12.9l4.4-50.6h140.2v50.6H554.5z"/>
			<path class="st0" d="M654.8,305.1l0.8-9l6.7-0.8c7.5-0.5,8.8-2.3,8.8-4.9v-54c0-25.3-8.3-33-23.7-33c-11.1,0-21.7,5.7-28.7,10.8
				v76.4c0,2.6,1.5,4.1,9.8,4.6l8.8,0.8l0.8,9h-57.3l0.8-9l7.2-0.8c6.2-0.5,8.8-1.8,8.8-4.9V155.9c0-3.1-0.8-5.2-2.8-5.9l-17.3-7.2
				l0.8-6.5l40.5-11.1v78.7h1.3c13.2-10.8,27.4-18.3,41.3-18.3c7.5,0,15.7,2.6,21.2,8c7,7,9.8,16.5,9.8,28.9v67.9
				c0,2.3,1.3,3.9,10.6,4.9l6.7,0.8l0.8,9H654.8z"/>
			<path class="st0" d="M765,309c-30.5,0-51.9-25.3-51.9-57.8c0-38.5,27.1-65.6,60.1-65.6c24.5,0,40.3,15.5,40.3,38.7
				c0,4.1-0.5,9.8-1.5,13.9l-76.7-1v2.8c0,29.7,17,50.3,40,50.3c10.8,0,22.7-3.9,31.5-13.7l5.2,2.8C802.4,298.4,785.4,309,765,309z
				 M767.6,195.2c-13.9,0-28.4,12.1-31.5,33.8h53.7C791.1,208.1,781.8,195.2,767.6,195.2z"/>
		</g>
	</g>
	<g>
		<path class="st0" d="M206.4,387.6c-7.2,0-14.2-0.5-21.2-1v51.6c0,2.3,1.8,3.4,9,4.1l15.5,1.3l0.8,9h-70.2l0.8-9l10.6-1.3
			c6.7-0.8,9-2.3,9-4.6V305.7c0-2.3-1.5-3.1-9-4.1l-10.6-1.3l-0.8-9h66.3c42.1,0,63,19.6,63,43.1C269.7,369.8,241,387.6,206.4,387.6
			z M206.2,301.3h-20.9v74.1c6.2,1.5,12.4,2.3,19.6,2.3c22.2,0,38.5-14.2,38.5-38.2C243.4,316.1,228.6,301.3,206.2,301.3z"/>
		<path class="st0" d="M323.9,456.5c-30.5,0-51.9-25.3-51.9-57.8c0-38.5,27.1-65.6,60.1-65.6c24.5,0,40.3,15.5,40.3,38.7
			c0,4.1-0.5,9.8-1.5,13.9l-76.7-1v2.8c0,29.7,17,50.3,40,50.3c10.8,0,22.7-3.9,31.5-13.7l5.2,2.8
			C361.3,445.9,344.3,456.5,323.9,456.5z M326.5,342.6c-13.9,0-28.4,12.1-31.5,33.8h53.7C350,355.6,340.7,342.6,326.5,342.6z"/>
		<path class="st0" d="M460.6,362c-5.4,0-10.3-4.1-13.2-8.5c-7.5,4.4-18.3,13.9-25.3,27.6v57c0,2.6,1.5,4.1,9.8,4.6l10.1,0.8l0.8,9
			h-58.6l0.8-9l7.2-0.8c6.2-0.5,8.8-1.8,8.8-4.9v-65.3c0-16.3-1.8-18.6-11.1-20.9l-6.2-1.5l0.3-7l38.2-10.1v33h1.3
			c14.2-23.2,23-33,35.1-33c10.1,0,15.5,6.2,15.5,14.5C474,355.6,469.7,362,460.6,362z"/>
		<path class="st0" d="M527.2,456.5c-30.5,0-51.9-25.3-51.9-57.8c0-38.5,28.7-65.6,61.2-65.6c23.7,0,36.7,12.4,36.7,24.8
			c0,11.1-8.3,13.9-14.5,13.9c-9.8,0-16.5-11.1-13.7-24v-0.5c-3.6-2.6-8.5-4.1-14.2-4.1c-18.6,0-33.3,16.3-33.3,43.6
			c0,29.2,17,51.1,40,51.1c10.8,0,22.7-3.9,31.5-13.7l5.2,2.8C564.7,445.9,547.6,456.5,527.2,456.5z"/>
		<path class="st0" d="M635.6,456.5c-30.5,0-51.9-25.3-51.9-57.8c0-38.5,27.1-65.6,60.1-65.6c24.5,0,40.3,15.5,40.3,38.7
			c0,4.1-0.5,9.8-1.5,13.9l-76.7-1v2.8c0,29.7,17,50.3,40,50.3c10.8,0,22.7-3.9,31.5-13.7l5.2,2.8
			C673.1,445.9,656,456.5,635.6,456.5z M638.2,342.6c-13.9,0-28.4,12.1-31.5,33.8h53.7C661.7,355.6,652.4,342.6,638.2,342.6z"/>
		<path class="st0" d="M756.7,456.5c-6.2,0-17-1.5-23.7-3.6h-0.3v34.5c0,2.6,1.8,8.4,9.6,7.1l10.2-1.6l0.8,9l-58.6,14.3l0.8-9
			l8.3-2.1c6-2,7.7-0.5,7.7-13.9V362.3c0-5.9-1.8-8.3-11.1-10.6l-6.2-1.5l0.3-7l38.2-10.1V354h1.3c10.1-11.4,23.7-19.1,36.9-19.1
			c28.9,0,45.9,25,45.9,55.5C816.9,423.7,795.5,456.5,756.7,456.5z M761.9,353c-12.4,0-22.7,7.2-29.2,15.2v62
			c7.2,8,16.8,15.7,29.4,15.7c16.5,0,31.8-18.1,31.8-45.9C793.9,371,780.8,353,761.9,353z"/>
		<path class="st0" d="M870.3,456.5c-17,0-31-10.1-30.5-36.4l1.8-69.4l-20.9-1.3l0.3-7.7l16.8-13.9l16.8-14.2l8.3,1.5l-0.3,21.9
			h42.3l-1.8,12.9h-40.3l-2.1,64.5c-0.5,18.8,8.5,25.3,22.2,25.3c6.7,0,14.5-2.6,21.4-6.5l1.3,6.5
			C896.4,450,882.5,456.5,870.3,456.5z"/>
		<path class="st0" d="M916.1,452.6l0.8-9l7.2-0.8c6.2-0.5,8.8-1.8,8.8-4.9v-65.3c0-16.3-1.8-18.6-11.1-20.9l-6.2-1.5l0.3-7
			l38.2-10.1v105.1c0,2.6,1.5,4.1,9.8,4.6l7.5,0.8l0.8,9H916.1z M940.9,310.9c-9.6,0-13.9-7.2-13.9-15.2s4.4-15.2,13.9-15.2
			s13.9,7.2,13.9,15.2S950.4,310.9,940.9,310.9z"/>
		<path class="st0" d="M1029.9,456.5c-34.6,0-56.3-27.1-56.3-61.2c0-34.6,27.1-62.2,61.2-62.2c33.6,0,56,25.6,56,58.3
			C1090.8,427.1,1064.8,456.5,1029.9,456.5z M1053.7,353.5c-3.6-3.9-11.1-9.8-22.5-9.8c-19.1,0-34.1,16-34.1,43.6
			c0,19.9,4.4,38.7,13.9,48.8c3.6,3.9,10.8,9.8,22.5,9.8c18.3,0,33.8-16,33.8-43.6C1067.3,382.4,1063.2,363.6,1053.7,353.5z"/>
		<path class="st0" d="M1170.6,452.6l0.8-9l6.7-0.8c7.5-0.5,8.8-2.3,8.8-4.9v-54c0-25.3-8.3-33-23.7-33c-11.1,0-21.7,5.7-28.7,10.8
			v76.4c0,2.6,1.5,4.1,9.8,4.6l8.8,0.8l0.8,9h-57.3l0.8-9l7.2-0.8c6.2-0.5,8.8-1.8,8.8-4.9v-65.3c0-16.3-1.8-18.6-11.1-20.9
			l-6.2-1.5l0.3-7l38.2-10.1v18.3h1.3c13.2-10.8,27.4-18.3,41.3-18.3c7.5,0,15.7,2.6,21.2,8c7,7,9.8,16.5,9.8,28.9v67.9
			c0,2.3,1.3,3.9,10.6,4.9l6.7,0.8l0.8,9H1170.6z"/>
	</g>
	<g>
		<g>
			<path class="st0" d="M562.5,638l-13.2-2.3c-9.6,3.4-24.8,6.2-39.2,6.2c-50.3,0-90.1-29.7-90.1-82.9c0-54.2,40.3-86,90.9-86
				c15.2,0,29.4,3.1,35.6,5.2l20.7-3.9v52.9h-11.9l-7-33c-10.3-6.2-21.2-10.3-38.7-10.3c-37.2,0-62.2,30.5-62.2,71.8
				c0,44.9,23.5,75.9,65.6,75.9c10.6,0,22.5-2.6,31.8-7.7l11.1-35.6h12.4L562.5,638z"/>
			<path class="st0" d="M636.1,641.9c-30.5,0-51.9-25.3-51.9-57.8c0-38.5,27.1-65.6,60.1-65.6c24.5,0,40.3,15.5,40.3,38.7
				c0,4.1-0.5,9.8-1.5,13.9l-76.7-1v2.8c0,29.7,17,50.3,40,50.3c10.8,0,22.7-3.9,31.5-13.7l5.2,2.8
				C673.5,631.3,656.5,641.9,636.1,641.9z M638.7,528.1c-13.9,0-28.4,12.1-31.5,33.8h53.7C662.2,541,652.9,528.1,638.7,528.1z"/>
			<path class="st0" d="M770.5,638l0.8-9l6.7-0.8c7.5-0.5,8.8-2.3,8.8-4.9v-54c0-25.3-8.3-33-23.7-33c-11.1,0-21.7,5.7-28.7,10.8
				v76.4c0,2.6,1.5,4.1,9.8,4.6l8.8,0.8l0.8,9h-57.3l0.8-9l7.2-0.8c6.2-0.5,8.8-1.8,8.8-4.9V558c0-16.3-1.8-18.6-11.1-20.9l-6.2-1.5
				l0.3-7l38.2-10.1v18.3h1.3c13.2-10.8,27.4-18.3,41.3-18.3c7.5,0,15.7,2.6,21.2,8c7,7,9.8,16.5,9.8,28.9v67.9
				c0,2.3,1.3,3.9,10.6,4.9l6.7,0.8l0.8,9H770.5z"/>
			<path class="st0" d="M873,641.9c-13.2,0-25.3-1.8-34.8-5.4l-1.5-34.1h12.9l5.9,22.7c5.7,4.1,13.2,7.2,20.7,7.2
				c10.3,0,23.5-7.7,23.5-20.7c0-12.1-13.7-17-28.4-22.7c-17-6.7-34.1-14.2-34.1-36.4c0-17,14.5-34.6,41.3-34.6
				c12.4,0,19.6,2.1,25.8,4.4l8-3.4l1.5,36.7h-12.6l-5.2-21.4c-5.4-4.1-13.4-6.5-19.6-6.5c-11.4,0-20.4,7-20.4,17
				c0,11.9,10.1,16,27.6,23c16.8,6.7,34.6,14.7,34.6,36.7C918.1,623.8,901.9,641.9,873,641.9z"/>
			<path class="st0" d="M1057.6,637.2l-40.5,4.6v-18.3h-1.3c-13.2,10.8-27.4,18.3-41.3,18.3c-7.5,0-15.7-2.6-21.2-8
				c-7-7-9.8-16.5-9.8-28.9l0.8-67.9c0-4.9-2.1-3.6-11.4-4.9l-6.2-0.8l-0.8-9h40.8l-2.1,68.7c0,25.3,8.3,33,23.7,33
				c11.1,0,21.7-5.7,28.7-10.8v-76.4c0-2.6-1.5-3.9-9.8-4.6l-10.1-0.8l-1-9h42.1v97.3c0,3.1,0.8,5.2,2.8,5.9l17.3,5.2L1057.6,637.2z
				"/>
			<path class="st0" d="M1105.9,641.9c-13.2,0-25.3-1.8-34.8-5.4l-1.5-34.1h12.9l5.9,22.7c5.7,4.1,13.2,7.2,20.7,7.2
				c10.3,0,23.5-7.7,23.5-20.7c0-12.1-13.7-17-28.4-22.7c-17-6.7-34.1-14.2-34.1-36.4c0-17,14.5-34.6,41.3-34.6
				c12.4,0,19.6,2.1,25.8,4.4l8-3.4l1.5,36.7H1134l-5.2-21.4c-5.4-4.1-13.4-6.5-19.6-6.5c-11.4,0-20.4,7-20.4,17
				c0,11.9,10.1,16,27.6,23c16.8,6.7,34.6,14.7,34.6,36.7C1151,623.8,1134.8,641.9,1105.9,641.9z"/>
		</g>
	</g>
</g>
</svg>
