<svg width="1026" height="329" viewBox="0 0 1026 329" fill="none" xmlns="http://www.w3.org/2000/svg">
<path d="M720.643 302.306H714.908L709.434 320.058C705.002 322.425 699.007 324.003 692.62 324.003C671.113 324.003 658.861 308.092 658.861 285.474C658.861 263.908 672.026 248.128 691.186 248.128C700.831 248.128 706.566 250.364 711.128 252.994L714.517 270.089H719.992V243.394L710.086 245.498C706.306 244.315 699.528 243 691.968 243C666.551 243 647 259.963 647 287.183C647 313.483 666.421 329 691.447 329C698.485 329 706.697 327.422 711.519 325.844L717.515 327.159L720.643 302.306Z" fill="#F3F0ED"/>
<path d="M781.652 314.141L779.045 312.563C774.353 318.217 768.357 320.584 762.361 320.584C750.5 320.584 741.897 309.933 741.897 295.073C741.897 294.547 741.897 292.443 742.028 291.917L781.261 292.443C781.652 290.602 781.913 287.709 781.913 285.474C781.913 274.165 774.092 266.407 761.84 266.407C745.677 266.407 731.991 280.214 731.991 299.413C731.991 316.508 743.07 328.869 758.19 328.869C768.357 328.869 776.96 323.477 781.652 314.141ZM771.485 287.841C772.007 287.841 742.549 287.972 742.549 287.972C744.635 277.321 752.325 271.009 759.494 271.009C767.314 271.009 772.137 277.584 771.485 287.841Z" fill="#F3F0ED"/>
<path d="M856.333 327.028L855.942 322.557L850.728 322.031C847.339 321.768 846.818 321.11 846.818 320.058V285.211C846.818 278.899 845.384 274.034 841.995 270.615C839.128 267.722 834.957 266.407 831.046 266.407C823.747 266.407 816.839 270.22 810.192 275.875H809.54V266.407L790.771 270.746L790.64 274.297L796.115 275.086C799.504 276.006 800.155 276.795 800.155 282.844V320.058C800.155 321.373 799.243 321.899 796.897 322.031L791.683 322.557L791.292 327.028H819.446L819.055 322.557L813.059 322.031C810.061 321.899 809.54 321.242 809.54 320.19V281.003C813.19 277.979 819.055 274.428 825.051 274.428C832.871 274.428 837.564 278.373 837.564 291.391V320.058C837.564 321.242 837.042 321.899 834.305 322.031L828.961 322.557L828.57 327.028H856.333Z" fill="#F3F0ED"/>
<path d="M904.95 310.327C904.95 299.15 896.086 295.336 887.484 292.049C879.011 288.761 873.146 286.526 873.146 280.083C873.146 274.691 877.708 270.746 884.225 270.746C887.744 270.746 891.655 271.93 894.653 273.902L897.129 285.343H902.864L901.821 266.933L897.911 268.248C894.653 267.196 891.003 266.144 885.268 266.144C872.103 266.144 864.934 274.56 864.934 283.239C864.934 294.547 873.537 298.098 882.14 301.385C889.7 304.147 896.738 306.645 896.738 313.352C896.738 320.058 890.221 324.398 883.834 324.398C879.663 324.398 876.144 323.083 873.146 320.979L870.409 309.275H864.544L865.326 326.239C870.018 328.08 876.144 329 882.27 329C897.259 329 904.95 319.927 904.95 310.327Z" fill="#F3F0ED"/>
<path d="M978.377 323.477L968.993 321.373C968.08 321.11 967.819 320.19 967.819 318.875V268.379H948.007L948.398 272.719L954.916 273.245C957.913 273.508 958.435 274.034 958.435 275.217V314.272C954.785 317.428 948.92 320.979 942.924 320.979C935.104 320.979 930.411 317.034 930.411 303.884L931.324 268.379H911.903L912.294 272.719L917.247 273.245C920.635 273.771 921.418 273.376 921.418 275.217L921.157 310.196C921.157 316.376 922.591 321.373 925.98 324.661C928.847 327.685 933.018 329 936.928 329C944.227 329 951.136 325.055 957.783 319.401H958.435V329L977.986 326.633L978.377 323.477Z" fill="#F3F0ED"/>
<path d="M1026 310.327C1026 299.15 1017.14 295.336 1008.53 292.049C1000.06 288.761 994.197 286.526 994.197 280.083C994.197 274.691 998.758 270.746 1005.28 270.746C1008.79 270.746 1012.71 271.93 1015.7 273.902L1018.18 285.343H1023.91L1022.87 266.933L1018.96 268.248C1015.7 267.196 1012.05 266.144 1006.32 266.144C993.154 266.144 985.985 274.56 985.985 283.239C985.985 294.547 994.587 298.098 1003.19 301.385C1010.75 304.147 1017.79 306.645 1017.79 313.352C1017.79 320.058 1011.27 324.398 1004.88 324.398C1000.71 324.398 997.194 323.083 994.197 320.979L991.459 309.275H985.594L986.376 326.239C991.068 328.08 997.194 329 1003.32 329C1018.31 329 1026 319.927 1026 310.327Z" fill="#F3F0ED"/>
<path d="M222.388 123.224C222.388 105.276 207.274 90.9168 175.722 90.9168H130L130.567 97.3405L140.391 98.4741C144.359 98.852 145.304 99.4188 145.304 100.93V198.798C145.304 200.309 143.981 201.065 140.391 201.443L130.567 202.576L130 209H179.689L179.123 202.576L165.708 201.443C161.93 201.065 160.796 200.498 160.796 198.987V160.255C165.897 160.822 171.376 161.2 176.855 161.2C201.984 161.2 222.388 147.597 222.388 123.224ZM205.762 126.247C205.762 143.818 194.048 154.587 176.1 154.587C170.621 154.587 165.519 153.831 160.796 152.698V98.0962C160.796 98.0962 167.598 97.9073 175.155 97.9073C194.048 97.7184 205.762 108.488 205.762 126.247Z" fill="#F3F0ED"/>
<path d="M302.503 190.485L298.725 188.217C291.923 196.341 283.232 199.742 274.541 199.742C257.348 199.742 244.879 184.439 244.879 163.089C244.879 162.333 244.879 159.311 245.068 158.555L301.937 159.311C302.503 156.665 302.881 152.509 302.881 149.297C302.881 133.049 291.545 121.902 273.785 121.902C250.358 121.902 230.52 141.74 230.52 169.324C230.52 193.885 246.579 211.645 268.495 211.645C283.232 211.645 295.702 203.899 302.503 190.485ZM287.767 152.698C288.522 152.698 245.823 152.887 245.823 152.887C248.846 137.583 259.993 128.514 270.385 128.514C281.721 128.514 288.711 137.961 287.767 152.698Z" fill="#F3F0ED"/>
<path d="M380.147 131.348C380.147 126.058 376.369 121.713 369.567 121.713C361.443 121.713 354.642 128.137 343.683 146.463H342.928V121.902L316.099 128.137L315.721 133.238L323.468 134.371C328.38 135.694 329.324 136.828 329.324 145.518V198.987C329.324 200.876 328.002 201.632 324.601 201.821L317.044 202.576L316.477 209H358.609L358.042 202.576L348.029 201.821C343.683 201.632 342.928 200.687 342.928 199.175V156.665C347.651 147.219 356.342 138.528 362.199 134.938C363.899 138.15 367.3 140.984 371.268 140.984C376.936 140.984 380.147 136.639 380.147 131.348Z" fill="#F3F0ED"/>
<path d="M459.148 190.485L455.369 188.217C448.568 196.341 439.877 199.742 431.186 199.742C413.993 199.742 401.523 183.872 401.523 162.711C401.523 142.307 413.048 128.703 427.974 128.703C432.886 128.703 437.232 130.215 439.877 132.104V132.482C437.043 141.929 441.766 149.108 448.568 149.108C453.102 149.108 458.203 146.652 458.203 139.473C458.203 130.593 448.19 121.902 431.186 121.902C407.38 121.902 387.165 141.74 387.165 169.324C387.165 193.885 403.224 211.645 425.14 211.645C439.877 211.645 452.346 203.899 459.148 190.485Z" fill="#F3F0ED"/>
<path d="M542.729 190.485L538.95 188.217C532.149 196.341 523.458 199.742 514.767 199.742C497.574 199.742 485.104 184.439 485.104 163.089C485.104 162.333 485.104 159.311 485.293 158.555L542.162 159.311C542.729 156.665 543.107 152.509 543.107 149.297C543.107 133.049 531.771 121.902 514.011 121.902C490.583 121.902 470.745 141.74 470.745 169.324C470.745 193.885 486.805 211.645 508.721 211.645C523.458 211.645 535.927 203.899 542.729 190.485ZM527.992 152.698C528.748 152.698 486.049 152.887 486.049 152.887C489.072 137.583 500.219 128.514 510.61 128.514C521.946 128.514 528.937 137.961 527.992 152.698Z" fill="#F3F0ED"/>
<path d="M643.612 164.034C643.612 140.606 630.009 122.846 609.415 122.846C598.646 122.846 588.821 128.892 582.02 136.261H581.264V121.902L554.246 128.137L553.868 133.238L561.804 134.371C566.716 135.694 567.661 136.828 567.661 145.518V245.464C567.661 247.353 566.338 248.109 562.937 248.298L555.191 249.054L554.624 255.478H596.945L596.378 249.054L586.554 248.298C582.02 248.109 581.264 247.164 581.264 245.653V208.433H581.642C586.743 210.322 594.3 211.834 599.968 211.834C626.986 211.834 643.612 189.54 643.612 164.034ZM629.064 169.324C629.064 190.485 617.35 204.466 602.991 204.466C593.922 204.466 587.121 199.553 581.264 194.074V145.518C586.365 139.662 594.3 134.182 603.747 134.182C618.862 134.182 629.064 148.164 629.064 169.324Z" fill="#F3F0ED"/>
<path d="M711.328 201.065L710.194 196.153C705.093 198.987 699.425 201.065 694.324 201.065C684.311 201.065 678.832 196.341 679.209 183.872L680.343 133.616H709.628L710.95 124.925H680.343L680.532 108.865L673.919 108.11L665.039 120.012L652.192 127.759L652.003 133.238L666.929 133.994L665.795 187.273C665.606 204.655 674.486 211.834 687.333 211.834C695.647 211.834 705.282 207.3 711.328 201.065Z" fill="#F3F0ED"/>
<path d="M747.938 94.3176C747.938 88.6496 744.726 83.7373 738.303 83.7373C731.879 83.7373 728.667 88.8385 728.667 94.3176C728.667 99.7966 731.879 104.898 738.303 104.898C744.726 104.898 747.938 99.7966 747.938 94.3176ZM760.786 209L760.219 202.576L752.284 201.821C747.938 201.632 746.994 200.687 746.994 199.175V121.902L719.976 128.137L719.598 133.238L727.156 134.371C732.446 135.694 733.579 136.828 733.579 145.896V198.987C733.579 200.876 732.068 201.632 728.856 201.821L720.921 202.576L720.354 209H760.786Z" fill="#F3F0ED"/>
<path d="M856.693 164.979C856.693 140.039 839.878 121.902 815.694 121.902C791.322 121.902 771.862 141.362 771.862 167.246C771.862 192.752 788.299 211.834 813.049 211.834C837.8 211.834 856.693 191.24 856.693 164.979ZM841.956 170.647C841.956 191.24 830.053 204.466 814.939 204.466C806.437 204.466 800.58 200.498 797.179 196.908C790.188 189.729 786.788 177.07 786.788 163.089C786.788 142.496 798.313 129.081 813.805 129.081C822.118 129.081 828.164 133.238 831.754 136.828C838.744 144.196 841.956 156.854 841.956 170.647Z" fill="#F3F0ED"/>
<path d="M962.794 209L962.227 202.576L954.669 201.821C949.757 201.443 949.001 200.498 949.001 198.987V148.919C949.001 139.85 946.923 132.86 942.011 127.948C937.854 123.791 931.809 121.902 926.141 121.902C915.56 121.902 905.547 127.381 895.911 135.505H894.967V121.902L867.76 128.137L867.571 133.238L875.506 134.371C880.419 135.694 881.363 136.828 881.363 145.518V198.987C881.363 200.876 880.041 201.632 876.64 201.821L869.083 202.576L868.516 209H909.326L908.759 202.576L900.068 201.821C895.722 201.632 894.967 200.687 894.967 199.175V142.873C900.257 138.528 908.759 133.427 917.45 133.427C928.786 133.427 935.587 139.095 935.587 157.799V198.987C935.587 200.687 934.831 201.632 930.864 201.821L923.118 202.576L922.551 209H962.794Z" fill="#F3F0ED"/>
<path d="M303.47 31.1899V8.50634H240.985L239 31.1899H244.256L247.409 17.9578C248.694 13.5865 250.212 12.8776 266.213 12.8776H267.03V75.9662C267.03 76.9114 266.213 77.384 263.994 77.6203L256.052 78.3291L255.701 82.346H287.936L287.586 78.3291L279.644 77.6203C277.308 77.384 276.607 77.0295 276.607 76.0844V12.8776H277.425C294.01 12.9958 294.827 14.4135 295.878 18.7848L298.448 31.1899H303.47Z" fill="#F3F0ED"/>
<path d="M367.742 82.346L367.391 78.3291L362.836 77.8566C359.8 77.6203 359.332 77.0295 359.332 76.0844V44.7764C359.332 39.1055 358.048 34.7342 355.011 31.6625C352.442 29.0633 348.704 27.8819 345.2 27.8819C338.66 27.8819 332.47 31.308 326.514 36.3882H325.93V0L308.411 4.25317L308.06 7.20675L316.236 9.80591C317.17 10.0422 317.521 10.7511 317.521 12.2869V76.0844C317.521 77.2658 316.703 77.7384 314.601 77.8566L309.929 78.3291L309.579 82.346H334.806L334.456 78.3291L329.083 77.8566C326.397 77.7384 325.93 77.1477 325.93 76.2025V40.9958C329.2 38.2785 334.456 35.0886 339.828 35.0886C346.836 35.0886 351.04 38.6329 351.04 50.3291V76.0844C351.04 77.1477 350.573 77.7384 348.12 77.8566L343.332 78.3291L342.981 82.346H367.742Z" fill="#F3F0ED"/>
<path d="M417.766 70.7679L415.431 69.3502C411.226 74.4304 405.854 76.557 400.481 76.557C389.853 76.557 382.145 66.9873 382.145 53.6371C382.145 53.1646 382.145 51.2743 382.261 50.8017L417.416 51.2743C417.766 49.6203 418 47.0211 418 45.0127C418 34.8523 410.992 27.8819 400.014 27.8819C385.532 27.8819 373.268 40.2869 373.268 57.5359C373.268 72.8945 383.196 84 396.744 84C405.854 84 413.562 79.1561 417.766 70.7679ZM408.657 47.1392C409.124 47.1392 382.729 47.2574 382.729 47.2574C384.597 37.6878 391.488 32.0169 397.912 32.0169C404.919 32.0169 409.241 37.9241 408.657 47.1392Z" fill="#F3F0ED"/>
<path d="M132.26 258.868H122.646V286H132.26C140.126 286 145.484 280.604 145.484 272.434C145.484 264.302 140.126 258.868 132.26 258.868ZM132.26 261.604C138.568 261.604 142.102 265.898 142.102 272.434C142.102 279.008 138.568 283.264 132.26 283.264H125.876V261.604H132.26ZM167.53 276.462C167.53 270.306 163.73 266.43 158.448 266.43C153.166 266.43 149.366 270.306 149.366 276.462C149.366 282.618 153.166 286.456 158.448 286.456C163.73 286.456 167.53 282.618 167.53 276.462ZM152.482 276.462C152.482 271.864 154.724 268.976 158.448 268.976C162.172 268.976 164.414 271.864 164.414 276.462C164.414 281.06 162.172 283.91 158.448 283.91C154.724 283.91 152.482 281.06 152.482 276.462ZM186.485 286.152C185.231 289.382 184.357 290.446 182.457 290.446C181.963 290.446 181.545 290.446 180.937 290.294V292.878C181.545 292.992 182.267 293.068 182.799 293.068C186.295 293.03 187.815 291.13 189.563 286.57L197.277 266.886H194.009L188.271 282.504H188.195L182.115 266.886H178.809L186.485 286.152ZM217.85 276.462C217.85 270.306 214.05 266.43 208.768 266.43C203.486 266.43 199.686 270.306 199.686 276.462C199.686 282.618 203.486 286.456 208.768 286.456C214.05 286.456 217.85 282.618 217.85 276.462ZM202.802 276.462C202.802 271.864 205.044 268.976 208.768 268.976C212.492 268.976 214.734 271.864 214.734 276.462C214.734 281.06 212.492 283.91 208.768 283.91C205.044 283.91 202.802 281.06 202.802 276.462ZM238.941 286V266.886H235.749V277.412C235.749 282.01 233.583 283.986 230.695 283.986C227.693 283.986 226.211 282.124 226.211 278.59V266.886H223.019V279.198C223.019 283.834 225.451 286.456 229.783 286.456C232.671 286.456 234.951 284.936 235.863 282.542V286H238.941ZM252.302 280.338C252.644 284.442 256.064 286.456 260.624 286.456C264.918 286.456 268.072 283.986 268.072 280.642C268.072 277.564 266.248 276.044 263.132 275.436L259.332 274.714C257.128 274.296 255.988 273.612 255.988 271.978C255.988 270.116 257.622 268.862 260.168 268.862C262.79 268.862 264.5 270.002 264.728 271.94H267.654C267.274 268.33 264.576 266.43 260.168 266.43C255.95 266.43 253.062 268.938 253.062 272.168C253.062 275.512 255.304 276.766 258.382 277.336L261.764 278.02C264.196 278.476 265.108 279.388 265.108 280.794C265.108 282.846 263.208 284.062 260.586 284.062C258.002 284.062 255.57 282.96 255.342 280.338H252.302ZM289.223 280.376H286.259C285.461 282.694 283.903 283.948 281.319 283.948C277.671 283.948 275.353 281.516 275.201 277.108H289.337V275.854C289.337 270.952 286.791 266.43 281.129 266.43C276.037 266.43 272.123 270.306 272.123 276.538C272.123 282.694 275.923 286.456 281.319 286.456C285.043 286.456 288.349 284.442 289.223 280.376ZM281.129 268.976C284.549 268.976 286.183 271.522 286.259 274.828H275.315C275.847 270.914 278.127 268.976 281.129 268.976ZM310.413 280.376H307.449C306.651 282.694 305.093 283.948 302.509 283.948C298.861 283.948 296.543 281.516 296.391 277.108H310.527V275.854C310.527 270.952 307.981 266.43 302.319 266.43C297.227 266.43 293.313 270.306 293.313 276.538C293.313 282.694 297.113 286.456 302.509 286.456C306.233 286.456 309.539 284.442 310.413 280.376ZM302.319 268.976C305.739 268.976 307.373 271.522 307.449 274.828H296.505C297.037 270.914 299.317 268.976 302.319 268.976ZM336.916 266.886H333.724L329.468 282.58H329.354L324.908 266.886H321.792L327.568 286H330.874L335.206 270.534H335.32L339.728 286H342.996L348.772 266.886H345.732L341.324 282.58H341.248L336.916 266.886ZM356.32 270.382V258.032H353.166V286H356.32V275.474C356.32 270.876 358.638 269.014 361.564 269.014C364.566 269.014 366.124 270.838 366.124 274.372V286H369.278V273.688C369.278 269.128 366.732 266.43 362.438 266.43C359.512 266.43 357.232 267.95 356.32 270.382ZM387.544 286H390.698C390.318 284.746 390.242 283.416 390.242 282.01V273.232C390.242 268.634 387.354 266.43 382.718 266.43C378.652 266.43 375.612 268.634 375.232 272.51H378.272C378.5 270.306 380.096 268.976 382.642 268.976C385.264 268.976 387.126 270.268 387.126 273.308V274.41L380.97 275.208C377.094 275.664 374.358 277.26 374.358 280.946C374.358 284.48 377.208 286.418 380.552 286.418C383.744 286.418 386.366 285.012 387.202 282.77C387.202 283.682 387.316 284.936 387.544 286ZM381.198 284.024C378.804 284.024 377.55 282.656 377.55 280.87C377.55 278.286 379.526 277.678 381.92 277.336L387.126 276.766V278.476C387.126 282.162 384.162 284.024 381.198 284.024ZM405.699 283.188C404.483 283.568 403.647 283.644 402.925 283.644C401.177 283.644 400.151 282.96 400.151 280.946V269.28H405.205V266.886H400.189V262.022H397.073V266.886H394.261V269.28H397.073V281.098C397.073 284.632 398.859 286.304 402.355 286.304C403.191 286.304 404.293 286.19 405.699 285.772V283.188ZM419.224 286H422.492V258.868H419.224V286ZM436.067 280.338C436.409 284.442 439.829 286.456 444.389 286.456C448.683 286.456 451.837 283.986 451.837 280.642C451.837 277.564 450.013 276.044 446.897 275.436L443.097 274.714C440.893 274.296 439.753 273.612 439.753 271.978C439.753 270.116 441.387 268.862 443.933 268.862C446.555 268.862 448.265 270.002 448.493 271.94H451.419C451.039 268.33 448.341 266.43 443.933 266.43C439.715 266.43 436.827 268.938 436.827 272.168C436.827 275.512 439.069 276.766 442.147 277.336L445.529 278.02C447.961 278.476 448.873 279.388 448.873 280.794C448.873 282.846 446.973 284.062 444.351 284.062C441.767 284.062 439.335 282.96 439.107 280.338H436.067ZM472.989 280.376H470.025C469.227 282.694 467.669 283.948 465.085 283.948C461.437 283.948 459.119 281.516 458.967 277.108H473.103V275.854C473.103 270.952 470.557 266.43 464.895 266.43C459.803 266.43 455.889 270.306 455.889 276.538C455.889 282.694 459.689 286.456 465.085 286.456C468.809 286.456 472.115 284.442 472.989 280.376ZM464.895 268.976C468.315 268.976 469.949 271.522 470.025 274.828H459.081C459.613 270.914 461.893 268.976 464.895 268.976ZM494.179 280.376H491.215C490.417 282.694 488.859 283.948 486.275 283.948C482.627 283.948 480.309 281.516 480.157 277.108H494.293V275.854C494.293 270.952 491.747 266.43 486.085 266.43C480.993 266.43 477.079 270.306 477.079 276.538C477.079 282.694 480.879 286.456 486.275 286.456C489.999 286.456 493.305 284.442 494.179 280.376ZM486.085 268.976C489.505 268.976 491.139 271.522 491.215 274.828H480.271C480.803 270.914 483.083 268.976 486.085 268.976ZM515.085 266.278C515.085 262.212 512.197 258.412 506.497 258.412C500.759 258.412 497.529 262.402 497.225 267.19H500.341C500.531 263.96 502.583 261.11 506.497 261.11C510.487 261.11 511.969 263.732 511.969 266.316C511.969 269.052 509.841 270.762 508.055 272.13C505.509 274.068 503.913 275.892 503.837 278.628H506.991C507.105 276.386 508.359 275.398 509.689 274.41C512.235 272.51 515.085 270.268 515.085 266.278ZM503.343 286H507.485V281.972H503.343V286Z" fill="#F3F0ED"/>
</svg>
