<svg width="53" height="47" viewBox="0 0 53 47" fill="none" xmlns="http://www.w3.org/2000/svg">
<path fill-rule="evenodd" clip-rule="evenodd" d="M37.8214 0.00803928C36.7472 0.10099 36.1302 0.21914 35.318 0.487347C33.1899 1.19012 31.5728 2.62069 30.8418 4.44712C30.7128 4.76951 30.5751 5.28224 30.5059 5.69739C30.4363 6.11532 30.4368 7.01562 30.5069 7.50945C30.8007 9.57905 31.9946 11.146 34.2953 12.4822C34.7722 12.7592 36.6448 13.6707 38.0045 14.2878C39.4271 14.9334 40.3848 15.5253 40.9811 16.1275C41.7491 16.903 42.0934 17.8627 42.0037 18.9777C41.9252 19.9541 41.5678 20.7139 40.847 21.4371C39.7592 22.5285 38.075 23.1491 36.0354 23.2102C33.6518 23.2816 31.6071 22.5799 30.1923 21.2053C28.8104 19.8625 28.0563 18.1331 27.7567 15.6201C27.7079 15.2101 27.7028 14.5867 27.6938 7.92039L27.684 0.666787H23.1666H18.6493V1.1224V1.57799L19.0538 1.61697C19.2763 1.63839 19.6437 1.683 19.8704 1.71604C21.9291 2.01631 22.5425 2.5722 22.762 4.33685C22.8123 4.74108 22.8165 5.16867 22.8165 9.95879C22.8165 14.7233 22.812 15.1863 22.7618 15.6751C22.5434 17.7985 22.0277 19.3708 21.1314 20.645C20.879 21.0037 20.1928 21.6863 19.8458 21.9236C19.2709 22.3169 18.6195 22.5896 17.9115 22.7335C17.6099 22.7948 17.4735 22.8039 16.8481 22.8041C16.038 22.8044 15.772 22.7689 15.2401 22.5895C14.6455 22.389 14.2306 22.1291 13.7952 21.6843C12.9307 20.8012 12.4672 19.5622 12.2173 17.4662C12.1682 17.0545 12.1633 16.3898 12.1546 8.84344L12.1451 0.666787H7.67339H3.20168V1.12376V1.58073L3.57566 1.61857C4.16569 1.67832 4.91423 1.79583 5.25072 1.88158C6.57576 2.21917 7.01351 2.86401 7.13783 4.66142C7.17953 5.26479 7.18344 15.2103 7.14195 15.2253C7.10382 15.239 7.15401 16.4939 7.215 17.0509C7.469 19.3712 8.15905 21.0733 9.3522 22.3225C10.4517 23.4736 11.9031 24.144 13.8715 24.4103C14.1834 24.4524 14.4939 24.464 15.3216 24.4644C16.4812 24.4649 16.8071 24.4324 17.6418 24.2332C20.142 23.6367 22.1859 22.0611 23.5266 19.6969C23.7332 19.3326 24.0234 18.7256 24.1446 18.4042C24.1782 18.3153 24.1789 18.316 24.3317 18.6031C24.8185 19.518 25.6002 20.5356 26.3492 21.2298C28.4032 23.1334 31.1388 24.2185 34.4748 24.4527C35.1557 24.5005 36.859 24.4739 37.455 24.4061C39.265 24.2002 40.8119 23.752 42.1717 23.0394C44.421 21.8608 45.8263 20.1137 46.221 18.0054C46.3132 17.5125 46.3335 16.5724 46.2637 16.0186C45.9589 13.5997 44.4183 11.8537 41.122 10.1914C40.8094 10.0338 40.3064 9.79046 40.0042 9.65068C39.0172 9.19414 37.2965 8.34586 36.8597 8.10045C35.3516 7.25319 34.6891 6.54669 34.3949 5.47201C34.3401 5.27171 34.3299 5.14716 34.3281 4.65127C34.3261 4.13113 34.3336 4.03785 34.3966 3.80515C34.7618 2.45719 35.9281 1.51888 37.5924 1.23415C37.9906 1.16606 38.7163 1.14452 39.1646 1.18754C41.3521 1.39744 42.8492 2.54559 44.0018 4.89742C44.2449 5.39352 44.6114 6.28879 44.7985 6.84351L44.8841 7.09734H45.352C45.6094 7.09734 45.8199 7.08648 45.8199 7.07319C45.8199 7.0599 45.71 5.55121 45.5757 3.7205C45.4414 1.88982 45.3315 0.377658 45.3315 0.360151C45.3315 0.340059 45.2006 0.328337 44.9763 0.328337H44.6211L44.4019 0.538207C44.1512 0.77823 43.9854 0.869457 43.7119 0.91804C43.4494 0.964623 43.0503 0.912471 42.6085 0.77383C41.3071 0.365505 40.4557 0.161757 39.6531 0.0666527C39.2585 0.0199158 38.1093 -0.016883 37.8214 0.00803928ZM35.3984 32.0216C34.3873 32.1331 33.761 32.7619 33.761 33.6657C33.761 34.1248 33.8924 34.4555 34.1875 34.7392C34.477 35.0175 34.6329 35.0813 35.6996 35.3584C36.069 35.4543 36.4262 35.5572 36.4934 35.587C36.7461 35.6992 36.8834 35.9159 36.8843 36.2041C36.8858 36.6739 36.4678 36.9425 35.7351 36.9425C35.1093 36.9425 34.6178 36.6927 34.4753 36.3023C34.4463 36.2229 34.4145 36.149 34.4047 36.1381C34.3949 36.1272 34.1877 36.1776 33.9442 36.2501C33.5105 36.3792 33.5017 36.3836 33.5077 36.4652C33.5188 36.6149 33.6936 36.9394 33.8571 37.1136C34.3218 37.6088 35.0588 37.8669 35.8828 37.823C37.3072 37.7472 38.1459 36.8493 37.8973 35.6662C37.812 35.2604 37.6159 34.9646 37.2926 34.754C37.0403 34.5896 36.8661 34.5306 36.0786 34.3426C35.3465 34.1679 35.2181 34.1256 35.0367 33.9993C34.6909 33.7586 34.7369 33.1878 35.1196 32.9709C35.4864 32.763 36.1286 32.791 36.489 33.0307C36.556 33.0753 36.646 33.1792 36.698 33.272C36.7482 33.3616 36.7955 33.4349 36.8032 33.4349C36.8109 33.4349 36.9917 33.3935 37.2048 33.3428C37.418 33.2921 37.6235 33.2434 37.6615 33.2344C37.7193 33.2209 37.7273 33.2044 37.7106 33.1343C37.6518 32.8879 37.4072 32.5804 37.1234 32.3963C36.6597 32.0956 36.0092 31.9543 35.3984 32.0216ZM0.00818496 32.0939C-0.000943162 32.1179 -0.00271355 33.0629 0.00427755 34.1939C0.01539 35.996 0.0232967 36.2746 0.0683878 36.4474C0.2221 37.0366 0.652526 37.4747 1.23783 37.6377C1.50999 37.7135 2.18507 37.7306 2.48484 37.6694C3.02596 37.5587 3.5077 37.2157 3.68795 36.8127C3.85286 36.4441 3.8514 36.4659 3.86468 34.1811L3.87707 32.0504H3.46448H3.05188L3.0419 34.0888C3.03286 35.9365 3.02691 36.1423 2.97818 36.2889C2.91496 36.4791 2.78005 36.6257 2.57264 36.7293C2.44054 36.7953 2.38238 36.804 2.07138 36.804C1.73022 36.8041 1.71316 36.8008 1.5066 36.6964C1.2845 36.5841 1.19054 36.4804 1.1194 36.2692C1.09165 36.1869 1.07941 35.6244 1.07227 34.1041L1.06262 32.0504H0.543691C0.124195 32.0504 0.0215871 32.0587 0.00818496 32.0939ZM5.96964 32.0709C5.95844 32.0822 5.94928 33.356 5.94928 34.9016V37.7117H6.36142H6.77356V35.6133C6.77356 34.3077 6.78436 33.526 6.80216 33.5442C6.81791 33.5602 6.89479 33.6911 6.97303 33.8349C7.05128 33.9788 7.59817 34.896 8.18835 35.8733L9.26144 37.6502H9.71183H10.1623V34.8503V32.0504H9.75012H9.33798V34.0103C9.33798 35.1277 9.32653 35.9577 9.31136 35.941C9.2967 35.9249 9.21406 35.7733 9.1277 35.6041C9.04136 35.4349 8.5416 34.5663 8.01715 33.6739L7.06358 32.0513L6.52679 32.0508C6.23155 32.0506 5.98081 32.0596 5.96964 32.0709ZM12.6961 34.8503V37.6502H13.1846H13.6731V34.8503V32.0504H13.1846H12.6961V34.8503ZM15.5713 32.0939C15.5767 32.1178 15.9589 33.378 16.4207 34.8944L17.2602 37.6513L17.7904 37.6431L18.3206 37.6348L19.1687 34.8503L20.0167 32.0658L19.6178 32.0571C19.3542 32.0514 19.2118 32.0599 19.1982 32.082C19.1869 32.1004 18.8984 33.0708 18.5569 34.2384C18.215 35.4076 17.9263 36.3432 17.9144 36.3211C17.8938 36.2832 16.6649 32.0976 16.6649 32.0655C16.6649 32.0572 16.4166 32.0504 16.1131 32.0504C15.6532 32.0504 15.563 32.0576 15.5713 32.0939ZM21.8853 34.8503V37.6502H23.7171H25.5488V37.2502V36.8502H24.2208H22.8928V36.0349V35.2195H23.9308H24.9687V34.8349V34.4503H23.9308H22.8928V33.6657V32.8811H24.1903H25.4877V32.4657V32.0504H23.6865H21.8853V34.8503ZM27.5865 32.0684C27.5739 32.081 27.5637 33.3421 27.5637 34.8708V37.6502H28.0674H28.5711V36.5118V35.3733H29.2842H29.9973L30.4367 36.5115L30.8761 37.6497L31.4016 37.6499L31.9271 37.6502L31.869 37.5135C31.5584 36.7832 30.9524 35.2444 30.9664 35.2216C30.9762 35.2056 31.0595 35.1491 31.1514 35.0961C31.662 34.8017 31.9282 34.3272 31.9282 33.7119C31.9282 32.9331 31.4447 32.2906 30.7234 32.1111C30.5514 32.0682 27.6261 32.0285 27.5865 32.0684ZM39.9889 34.8503V37.6502H40.4774H40.9658V34.8503V32.0504H40.4774H39.9889V34.8503ZM42.8586 32.4965V32.9426H43.5913H44.324V35.2964V37.6502H44.8735H45.4231V35.2964V32.9426H46.1405H46.8579V32.4965V32.0504H44.8583H42.8586V32.4965ZM48.2622 32.061C48.2622 32.0675 48.6811 32.8051 49.1932 33.7L50.1242 35.3272L50.1243 36.4887L50.1245 37.6502H50.674H51.2235V36.4937V35.3372L52.0368 33.8246C52.4841 32.9926 52.8838 32.2531 52.925 32.1811L53 32.0504H52.5292H52.0583L51.4232 33.2201L50.7882 34.3899L50.1282 33.2278L49.4681 32.0658L48.8652 32.0574C48.5336 32.0528 48.2622 32.0544 48.2622 32.061ZM30.185 32.8518C30.5308 32.9084 30.7739 33.0789 30.8848 33.3426C30.9391 33.472 30.9435 33.7994 30.8933 33.9839C30.8455 34.1594 30.6561 34.3631 30.4556 34.4545C30.3024 34.5243 30.2628 34.5276 29.4641 34.5367L28.6322 34.5462V33.6829V32.8196L29.3115 32.8198C29.685 32.8199 30.0781 32.8343 30.185 32.8518ZM4.39231 41.1879C3.89338 41.2535 3.52849 41.4393 3.15589 41.8174C2.7508 42.2284 2.53142 42.661 2.39032 43.3269C2.31101 43.7012 2.3179 44.4624 2.40433 44.8746C2.68715 46.2234 3.4646 46.9422 4.64051 46.9422C5.59356 46.9422 6.3699 46.408 6.74333 45.4953C7.17797 44.433 7.06205 42.9928 6.47129 42.1161C6.00359 41.4219 5.23203 41.0775 4.39231 41.1879ZM17.7945 41.1905C17.126 41.2688 16.5668 41.6142 16.3328 42.0933C16.2113 42.342 16.1781 42.5014 16.1772 42.8391C16.1763 43.1865 16.2496 43.4461 16.4225 43.707C16.672 44.0835 16.9493 44.2206 18.0435 44.5084C18.4911 44.6261 18.8964 44.743 18.9441 44.7682C19.0617 44.8302 19.2182 44.9995 19.2592 45.109C19.3037 45.2278 19.3044 45.4884 19.2606 45.6038C19.1773 45.8232 18.895 46.0181 18.5737 46.0779C17.8126 46.2197 17.0669 45.9532 16.8929 45.4771C16.8627 45.3945 16.8299 45.3173 16.8201 45.3057C16.8103 45.2941 16.6031 45.3449 16.3596 45.4185L15.9169 45.5525L15.9211 45.6441C15.9277 45.7895 16.1106 46.129 16.2705 46.2927C16.746 46.7796 17.4872 47.0351 18.2982 46.992C19.3236 46.9374 20.0441 46.4775 20.2744 45.7305C20.3677 45.428 20.3655 44.9516 20.2694 44.6653C20.1304 44.2511 19.8467 43.9513 19.4267 43.7747C19.3085 43.7251 18.8826 43.6057 18.4803 43.5095C17.5801 43.2942 17.3969 43.2088 17.2594 42.9408C17.1793 42.7846 17.2117 42.4807 17.3257 42.319C17.4983 42.0742 17.9253 41.9503 18.3679 42.0167C18.758 42.0751 19.0075 42.2274 19.141 42.4885C19.1735 42.552 19.2054 42.6039 19.212 42.6039C19.229 42.6039 19.8633 42.4532 20.0002 42.4167C20.0892 42.3929 20.1145 42.371 20.114 42.3181C20.1128 42.1963 19.9985 41.9911 19.8343 41.8162C19.4013 41.3548 18.5697 41.0997 17.7945 41.1905ZM29.4259 41.1777C29.1495 41.2012 28.8247 41.2888 28.5838 41.4049C28.0352 41.6693 27.7384 42.1061 27.6961 42.7116C27.6496 43.3754 27.9497 43.9122 28.5202 44.1858C28.6629 44.2543 29.0345 44.3661 29.5885 44.5073C30.5374 44.7491 30.6596 44.8017 30.7891 45.0244C30.9678 45.3316 30.8725 45.7191 30.5683 45.9221C30.2451 46.1379 29.5229 46.1757 29.0596 46.0011C28.7762 45.8943 28.5179 45.6543 28.45 45.4345C28.4264 45.3584 28.4052 45.2928 28.4029 45.2887C28.3969 45.2781 27.4418 45.5471 27.4249 45.5641C27.3964 45.5929 27.5383 45.9473 27.6406 46.1028C27.8516 46.4235 28.3891 46.7822 28.8306 46.8969C29.1775 46.987 29.6423 47.0192 30.0066 46.9784C30.6268 46.9089 31.0451 46.7272 31.3979 46.3742C31.7311 46.0409 31.8683 45.6964 31.8683 45.1934C31.8683 44.4634 31.4731 43.9339 30.7539 43.7003C30.67 43.673 30.3059 43.5808 29.9449 43.4953C29.5839 43.4099 29.2174 43.3053 29.1304 43.263C28.8176 43.1108 28.6843 42.861 28.7524 42.5545C28.8339 42.187 29.121 42.0137 29.6549 42.0093C30.0184 42.0063 30.2469 42.0658 30.4388 42.2133C30.5478 42.2971 30.6752 42.467 30.7161 42.5833C30.7246 42.6074 31.6101 42.4128 31.6431 42.3796C31.6774 42.345 31.5875 42.1134 31.4789 41.9568C31.1309 41.4548 30.2224 41.11 29.4259 41.1777ZM35.0691 41.1902C34.0621 41.3008 33.4276 41.9321 33.4257 42.8254C33.4247 43.2528 33.5444 43.5743 33.8132 43.867C34.068 44.1444 34.3151 44.2522 35.257 44.4967C35.6851 44.6079 36.1089 44.7346 36.1988 44.7782C36.4028 44.8772 36.5262 45.0578 36.5564 45.3013C36.5748 45.4495 36.5668 45.49 36.4895 45.6415C36.3131 45.9875 35.9387 46.1336 35.3059 46.1035C34.8924 46.0839 34.5998 45.9862 34.3859 45.7965C34.252 45.6777 34.0969 45.4262 34.0969 45.3279C34.0969 45.2697 34.1115 45.269 33.8787 45.3396C33.772 45.3719 33.5632 45.4351 33.4148 45.4799C33.1503 45.5597 33.1452 45.563 33.1645 45.6441C33.204 45.8094 33.36 46.1066 33.474 46.2337C34.0712 46.9 35.1454 47.1634 36.1833 46.898C36.5921 46.7935 36.8735 46.6387 37.1351 46.3742C37.5419 45.9631 37.691 45.4207 37.5637 44.8152C37.4821 44.4271 37.2852 44.1381 36.9558 43.9227C36.7037 43.7579 36.5268 43.6979 35.7331 43.5082C35.3486 43.4162 34.9708 43.3129 34.8936 43.2786C34.7235 43.2028 34.5624 43.0541 34.5054 42.9202C34.3845 42.6365 34.5347 42.2632 34.8309 42.1109C34.9892 42.0295 35.3245 41.9812 35.5615 42.0057C35.9645 42.0472 36.2338 42.1929 36.3782 42.4471C36.4223 42.5249 36.461 42.5924 36.4641 42.5971C36.4721 42.6093 37.3667 42.3955 37.385 42.377C37.4187 42.343 37.2946 42.0563 37.1869 41.9194C36.775 41.3956 35.9101 41.0978 35.0691 41.1902ZM8.7274 44.0192V46.8191H9.21586H9.70432V45.6653V44.5115H10.6965H11.6887V44.0654V43.6192H10.6965H9.70432V42.8654V42.1116H10.9407H12.1772V41.6654V41.2193H10.4523H8.7274V44.0192ZM22.1721 41.2629C22.163 41.2868 22.1615 42.2318 22.1688 43.3628C22.1784 44.8519 22.1924 45.4616 22.2198 45.573C22.2925 45.8695 22.4582 46.1661 22.6739 46.386C23.0024 46.7209 23.3342 46.8445 23.9765 46.8713C24.4887 46.8926 24.7947 46.8383 25.1458 46.6637C25.4448 46.515 25.715 46.2653 25.8348 46.0271C26.017 45.6647 26.0163 45.6744 26.0292 43.35L26.041 41.2193H25.627H25.213L25.2127 43.1346C25.2125 45.1161 25.2009 45.341 25.0864 45.5813C24.9577 45.8514 24.6091 46.0027 24.161 45.983C23.9133 45.9721 23.8526 45.9574 23.6681 45.8641C23.4486 45.7531 23.3542 45.6486 23.2833 45.4382C23.2556 45.3558 23.2433 44.7934 23.2362 43.2731L23.2265 41.2193H22.7076C22.2881 41.2193 22.1855 41.2276 22.1721 41.2629ZM39.3783 44.0192V46.8191H41.1948H43.0113V46.3887V45.9583L41.6909 45.9503L40.3705 45.9422L40.3624 45.1653L40.3542 44.3884H41.408H42.4618V44.0038V43.6192H41.4085H40.3553V42.8346V42.05H41.6527H42.9502V41.6347V41.2193H41.1643H39.3783V44.0192ZM44.7915 41.2424C44.7988 41.2551 45.1444 41.8524 45.5595 42.5698C46.1971 43.6718 46.3096 43.8843 46.2846 43.939C46.2573 43.9988 44.71 46.5903 44.6068 46.749L44.5612 46.8191H45.0313H45.5014L46.1248 45.7268C46.4677 45.1261 46.7557 44.6349 46.7649 44.6354C46.7741 44.6359 47.0495 45.1082 47.3769 45.6851C47.7043 46.262 47.986 46.7534 48.0028 46.7772C48.0277 46.8123 48.1412 46.8189 48.6022 46.8121L49.1709 46.8037L49.041 46.573C48.9695 46.446 48.5884 45.7655 48.1941 45.0607L47.4772 43.7791L48.236 42.5223C48.6534 41.831 48.9949 41.2551 48.9949 41.2424C48.9949 41.2297 48.7907 41.2193 48.541 41.2193H48.0872L47.5412 42.1573C47.241 42.6733 46.9884 43.0951 46.98 43.0947C46.9716 43.0943 46.7324 42.6722 46.4484 42.1566L45.932 41.2193H45.3552C45.0379 41.2193 44.7843 41.2297 44.7915 41.2424ZM5.1914 42.0592C5.62399 42.2725 5.86316 42.7762 5.98124 43.7228C6.04813 44.2587 5.98817 44.7446 5.79181 45.2578C5.71317 45.4632 5.66124 45.5452 5.51812 45.6894C5.4153 45.793 5.26754 45.9023 5.16456 45.951C5.00905 46.0244 4.95065 46.0345 4.68233 46.0345C4.40977 46.0345 4.35839 46.0253 4.20294 45.9484C3.76525 45.7317 3.52095 45.2338 3.44314 44.3997C3.37893 43.7115 3.49558 42.8869 3.70926 42.518C3.95114 42.1005 4.22498 41.9525 4.72913 41.9666C4.97446 41.9735 5.04709 41.988 5.1914 42.0592Z" fill="white"/>
</svg>
